ISO-10303-21;
HEADER;
/* Generated by software containing ST-Developer
 * from STEP Tools, Inc. (www.steptools.com) 
 */

FILE_DESCRIPTION(
/* description */ (''),
/* implementation_level */ '2;1');

FILE_NAME(
/* name */ 'phone holder main.step',
/* time_stamp */ '2026-07-26T11:39:40-05:00',
/* author */ (''),
/* organization */ (''),
/* preprocessor_version */ 'ST-DEVELOPER v20.1',
/* originating_system */ 'Autodesk Translation Framework v15.8.0.0',
/* authorisation */ '');

FILE_SCHEMA (('AUTOMOTIVE_DESIGN { 1 0 10303 214 3 1 1 }'));
ENDSEC;

DATA;
#10=MECHANICAL_DESIGN_GEOMETRIC_PRESENTATION_REPRESENTATION('',(#20,#21),
#1794);
#11=SHAPE_REPRESENTATION_RELATIONSHIP('SRR','None',#1801,#12);
#12=ADVANCED_BREP_SHAPE_REPRESENTATION('',(#13),#1793);
#13=MANIFOLD_SOLID_BREP('Body1',#986);
#14=FACE_BOUND('',#145,.T.);
#15=FACE_BOUND('',#148,.T.);
#16=FACE_BOUND('',#154,.T.);
#17=(
BOUNDED_CURVE()
B_SPLINE_CURVE(5,(#1651,#1652,#1653,#1654,#1655,#1656,#1657,#1658,#1659,
#1660,#1661,#1662,#1663,#1664,#1665,#1666,#1667,#1668,#1669,#1670,#1671,
#1672,#1673,#1674,#1675,#1676,#1677,#1678,#1679,#1680),.UNSPECIFIED.,.F.,
 .F.)
B_SPLINE_CURVE_WITH_KNOTS((6,1,1,1,1,1,1,1,1,1,1,1,1,1,1,1,1,1,1,1,1,1,
1,1,1,6),(0.,0.04,0.08,0.12,0.16,0.2,0.24,0.28,0.32,0.36,0.4,0.44,0.48,
0.52,0.56,0.6,0.64,0.68,0.72,0.76,0.8,0.84,0.88,0.92,0.96,1.),
 .UNSPECIFIED.)
CURVE()
GEOMETRIC_REPRESENTATION_ITEM()
RATIONAL_B_SPLINE_CURVE((1.,1.,1.,1.,1.,1.,1.,1.,1.,1.,1.,1.,1.,1.,1.,1.,
1.,1.,1.,1.,1.,1.,1.,1.,1.,1.,1.,1.,1.,1.))
REPRESENTATION_ITEM('')
);
#18=B_SPLINE_CURVE_WITH_KNOTS('',3,(#1572,#1573,#1574,#1575,#1576,#1577,
#1578,#1579,#1580,#1581,#1582,#1583,#1584,#1585,#1586,#1587,#1588,#1589,
#1590,#1591,#1592,#1593,#1594,#1595,#1596,#1597,#1598,#1599,#1600,#1601,
#1602,#1603,#1604,#1605,#1606,#1607,#1608,#1609,#1610,#1611,#1612,#1613,
#1614,#1615,#1616,#1617,#1618,#1619,#1620,#1621,#1622,#1623,#1624,#1625,
#1626,#1627,#1628,#1629,#1630,#1631,#1632,#1633,#1634,#1635,#1636,#1637,
#1638,#1639,#1640,#1641,#1642,#1643,#1644,#1645,#1646,#1647,#1648,#1649,
#1650),.UNSPECIFIED.,.F.,.F.,(4,3,3,3,3,3,3,3,3,3,3,3,3,3,3,3,3,3,3,3,3,
3,3,3,3,3,4),(0.,0.24013802721713,0.438157203087072,0.609210919800621,0.765628008890417,
0.913502538920567,1.07198452574279,1.26928356240288,1.41234024503044,1.53710348577563,
1.65786541027812,1.78147656217977,1.91675137029261,2.06919599516858,2.25980469862273,
2.41687687709742,2.57515366732573,2.73816783911598,2.902205481907,3.06802593570666,
3.22282344608655,3.38256711094075,3.55222030720006,3.74562349731505,3.96122097542657,
4.19230919109711,4.22876911230425),.UNSPECIFIED.);
#19=(
BOUNDED_SURFACE()
B_SPLINE_SURFACE(5,1,((#1512,#1513),(#1514,#1515),(#1516,#1517),(#1518,
#1519),(#1520,#1521),(#1522,#1523),(#1524,#1525),(#1526,#1527),(#1528,#1529),
(#1530,#1531),(#1532,#1533),(#1534,#1535),(#1536,#1537),(#1538,#1539),(#1540,
#1541),(#1542,#1543),(#1544,#1545),(#1546,#1547),(#1548,#1549),(#1550,#1551),
(#1552,#1553),(#1554,#1555),(#1556,#1557),(#1558,#1559),(#1560,#1561),(#1562,
#1563),(#1564,#1565),(#1566,#1567),(#1568,#1569),(#1570,#1571)),
 .UNSPECIFIED.,.F.,.F.,.F.)
B_SPLINE_SURFACE_WITH_KNOTS((6,1,1,1,1,1,1,1,1,1,1,1,1,1,1,1,1,1,1,1,1,
1,1,1,1,6),(2,2),(0.,0.04,0.08,0.12,0.16,0.2,0.24,0.28,0.32,0.36,0.4,0.44,
0.48,0.52,0.56,0.6,0.64,0.68,0.72,0.76,0.8,0.84,0.88,0.92,0.96,1.),(0.,
0.5),.UNSPECIFIED.)
GEOMETRIC_REPRESENTATION_ITEM()
RATIONAL_B_SPLINE_SURFACE(((1.,1.),(1.,1.),(1.,1.),(1.,1.),(1.,1.),(1.,
1.),(1.,1.),(1.,1.),(1.,1.),(1.,1.),(1.,1.),(1.,1.),(1.,1.),(1.,1.),(1.,
1.),(1.,1.),(1.,1.),(1.,1.),(1.,1.),(1.,1.),(1.,1.),(1.,1.),(1.,1.),(1.,
1.),(1.,1.),(1.,1.),(1.,1.),(1.,1.),(1.,1.),(1.,1.)))
REPRESENTATION_ITEM('')
SURFACE()
);
#20=STYLED_ITEM('',(#1811),#944);
#21=STYLED_ITEM('',(#1811),#13);
#22=PLANE('',#1003);
#23=PLANE('',#1005);
#24=PLANE('',#1009);
#25=PLANE('',#1014);
#26=PLANE('',#1015);
#27=PLANE('',#1017);
#28=PLANE('',#1022);
#29=PLANE('',#1023);
#30=PLANE('',#1024);
#31=PLANE('',#1025);
#32=PLANE('',#1026);
#33=PLANE('',#1030);
#34=PLANE('',#1032);
#35=PLANE('',#1038);
#36=PLANE('',#1040);
#37=PLANE('',#1043);
#38=PLANE('',#1044);
#39=PLANE('',#1045);
#40=PLANE('',#1046);
#41=PLANE('',#1047);
#42=PLANE('',#1048);
#43=PLANE('',#1049);
#44=PLANE('',#1050);
#45=PLANE('',#1051);
#46=PLANE('',#1052);
#47=PLANE('',#1056);
#48=PLANE('',#1060);
#49=PLANE('',#1064);
#50=PLANE('',#1065);
#51=PLANE('',#1066);
#52=PLANE('',#1067);
#53=PLANE('',#1071);
#54=PLANE('',#1072);
#55=PLANE('',#1073);
#56=PLANE('',#1074);
#57=PLANE('',#1075);
#58=FACE_OUTER_BOUND('',#107,.T.);
#59=FACE_OUTER_BOUND('',#108,.T.);
#60=FACE_OUTER_BOUND('',#109,.T.);
#61=FACE_OUTER_BOUND('',#110,.T.);
#62=FACE_OUTER_BOUND('',#111,.T.);
#63=FACE_OUTER_BOUND('',#112,.T.);
#64=FACE_OUTER_BOUND('',#113,.T.);
#65=FACE_OUTER_BOUND('',#114,.T.);
#66=FACE_OUTER_BOUND('',#115,.T.);
#67=FACE_OUTER_BOUND('',#116,.T.);
#68=FACE_OUTER_BOUND('',#117,.T.);
#69=FACE_OUTER_BOUND('',#118,.T.);
#70=FACE_OUTER_BOUND('',#119,.T.);
#71=FACE_OUTER_BOUND('',#120,.T.);
#72=FACE_OUTER_BOUND('',#121,.T.);
#73=FACE_OUTER_BOUND('',#122,.T.);
#74=FACE_OUTER_BOUND('',#123,.T.);
#75=FACE_OUTER_BOUND('',#124,.T.);
#76=FACE_OUTER_BOUND('',#125,.T.);
#77=FACE_OUTER_BOUND('',#126,.T.);
#78=FACE_OUTER_BOUND('',#127,.T.);
#79=FACE_OUTER_BOUND('',#128,.T.);
#80=FACE_OUTER_BOUND('',#129,.T.);
#81=FACE_OUTER_BOUND('',#130,.T.);
#82=FACE_OUTER_BOUND('',#131,.T.);
#83=FACE_OUTER_BOUND('',#132,.T.);
#84=FACE_OUTER_BOUND('',#133,.T.);
#85=FACE_OUTER_BOUND('',#134,.T.);
#86=FACE_OUTER_BOUND('',#135,.T.);
#87=FACE_OUTER_BOUND('',#136,.T.);
#88=FACE_OUTER_BOUND('',#137,.T.);
#89=FACE_OUTER_BOUND('',#138,.T.);
#90=FACE_OUTER_BOUND('',#139,.T.);
#91=FACE_OUTER_BOUND('',#140,.T.);
#92=FACE_OUTER_BOUND('',#141,.T.);
#93=FACE_OUTER_BOUND('',#142,.T.);
#94=FACE_OUTER_BOUND('',#143,.T.);
#95=FACE_OUTER_BOUND('',#144,.T.);
#96=FACE_OUTER_BOUND('',#146,.T.);
#97=FACE_OUTER_BOUND('',#147,.T.);
#98=FACE_OUTER_BOUND('',#149,.T.);
#99=FACE_OUTER_BOUND('',#150,.T.);
#100=FACE_OUTER_BOUND('',#151,.T.);
#101=FACE_OUTER_BOUND('',#152,.T.);
#102=FACE_OUTER_BOUND('',#153,.T.);
#103=FACE_OUTER_BOUND('',#155,.T.);
#104=FACE_OUTER_BOUND('',#156,.T.);
#105=FACE_OUTER_BOUND('',#157,.T.);
#106=FACE_OUTER_BOUND('',#158,.T.);
#107=EDGE_LOOP('',(#643,#644,#645,#646));
#108=EDGE_LOOP('',(#647,#648,#649,#650,#651));
#109=EDGE_LOOP('',(#652,#653,#654,#655));
#110=EDGE_LOOP('',(#656,#657,#658,#659));
#111=EDGE_LOOP('',(#660,#661,#662,#663));
#112=EDGE_LOOP('',(#664,#665,#666,#667,#668,#669,#670,#671));
#113=EDGE_LOOP('',(#672,#673,#674,#675));
#114=EDGE_LOOP('',(#676,#677,#678,#679,#680,#681));
#115=EDGE_LOOP('',(#682,#683,#684,#685));
#116=EDGE_LOOP('',(#686,#687,#688,#689,#690,#691,#692,#693));
#117=EDGE_LOOP('',(#694,#695,#696,#697));
#118=EDGE_LOOP('',(#698,#699,#700,#701));
#119=EDGE_LOOP('',(#702,#703,#704,#705));
#120=EDGE_LOOP('',(#706,#707,#708,#709,#710,#711,#712,#713,#714,#715,#716,
#717));
#121=EDGE_LOOP('',(#718,#719,#720,#721));
#122=EDGE_LOOP('',(#722,#723,#724,#725));
#123=EDGE_LOOP('',(#726,#727,#728,#729,#730,#731));
#124=EDGE_LOOP('',(#732,#733,#734,#735));
#125=EDGE_LOOP('',(#736,#737,#738,#739));
#126=EDGE_LOOP('',(#740,#741,#742,#743));
#127=EDGE_LOOP('',(#744,#745,#746,#747,#748,#749));
#128=EDGE_LOOP('',(#750,#751,#752,#753));
#129=EDGE_LOOP('',(#754,#755,#756,#757));
#130=EDGE_LOOP('',(#758,#759,#760,#761));
#131=EDGE_LOOP('',(#762,#763,#764,#765));
#132=EDGE_LOOP('',(#766,#767,#768,#769));
#133=EDGE_LOOP('',(#770,#771,#772,#773));
#134=EDGE_LOOP('',(#774,#775,#776,#777,#778,#779,#780,#781,#782,#783,#784));
#135=EDGE_LOOP('',(#785,#786,#787,#788,#789));
#136=EDGE_LOOP('',(#790,#791,#792,#793,#794,#795,#796));
#137=EDGE_LOOP('',(#797,#798,#799,#800,#801,#802,#803));
#138=EDGE_LOOP('',(#804,#805,#806,#807));
#139=EDGE_LOOP('',(#808,#809,#810,#811,#812,#813));
#140=EDGE_LOOP('',(#814,#815,#816,#817));
#141=EDGE_LOOP('',(#818,#819,#820,#821));
#142=EDGE_LOOP('',(#822,#823,#824,#825));
#143=EDGE_LOOP('',(#826,#827,#828,#829));
#144=EDGE_LOOP('',(#830,#831,#832,#833));
#145=EDGE_LOOP('',(#834,#835,#836,#837));
#146=EDGE_LOOP('',(#838,#839,#840,#841));
#147=EDGE_LOOP('',(#842,#843,#844,#845));
#148=EDGE_LOOP('',(#846,#847,#848,#849));
#149=EDGE_LOOP('',(#850,#851,#852,#853,#854,#855,#856,#857));
#150=EDGE_LOOP('',(#858,#859,#860,#861,#862,#863));
#151=EDGE_LOOP('',(#864,#865,#866,#867));
#152=EDGE_LOOP('',(#868,#869,#870,#871));
#153=EDGE_LOOP('',(#872,#873,#874,#875));
#154=EDGE_LOOP('',(#876,#877,#878,#879));
#155=EDGE_LOOP('',(#880,#881,#882,#883));
#156=EDGE_LOOP('',(#884,#885,#886,#887,#888,#889,#890,#891,#892));
#157=EDGE_LOOP('',(#893,#894,#895,#896,#897,#898,#899,#900,#901,#902,#903,
#904,#905,#906,#907,#908,#909,#910));
#158=EDGE_LOOP('',(#911,#912,#913,#914,#915,#916,#917,#918,#919,#920,#921,
#922,#923,#924));
#159=CIRCLE('',#1001,0.25);
#160=CIRCLE('',#1002,0.25);
#161=CIRCLE('',#1004,0.5);
#162=CIRCLE('',#1007,0.2);
#163=CIRCLE('',#1008,0.2);
#164=CIRCLE('',#1011,0.5);
#165=CIRCLE('',#1012,0.5);
#166=CIRCLE('',#1013,0.5);
#167=CIRCLE('',#1016,0.5);
#168=CIRCLE('',#1019,0.5);
#169=CIRCLE('',#1020,0.5);
#170=CIRCLE('',#1021,0.5);
#171=CIRCLE('',#1028,0.2);
#172=CIRCLE('',#1029,0.2);
#173=CIRCLE('',#1031,0.2);
#174=CIRCLE('',#1034,0.2);
#175=CIRCLE('',#1036,0.2);
#176=CIRCLE('',#1037,0.2);
#177=CIRCLE('',#1039,0.2);
#178=CIRCLE('',#1042,0.2);
#179=CIRCLE('',#1054,0.802469912814146);
#180=CIRCLE('',#1055,0.802469912814146);
#181=CIRCLE('',#1058,0.802469912814146);
#182=CIRCLE('',#1059,0.802469912814146);
#183=CIRCLE('',#1062,1.);
#184=CIRCLE('',#1063,1.);
#185=CIRCLE('',#1069,1.35);
#186=CIRCLE('',#1070,1.35);
#187=LINE('',#1345,#298);
#188=LINE('',#1349,#299);
#189=LINE('',#1353,#300);
#190=LINE('',#1355,#301);
#191=LINE('',#1358,#302);
#192=LINE('',#1361,#303);
#193=LINE('',#1362,#304);
#194=LINE('',#1366,#305);
#195=LINE('',#1370,#306);
#196=LINE('',#1374,#307);
#197=LINE('',#1376,#308);
#198=LINE('',#1377,#309);
#199=LINE('',#1382,#310);
#200=LINE('',#1386,#311);
#201=LINE('',#1389,#312);
#202=LINE('',#1392,#313);
#203=LINE('',#1394,#314);
#204=LINE('',#1395,#315);
#205=LINE('',#1398,#316);
#206=LINE('',#1400,#317);
#207=LINE('',#1402,#318);
#208=LINE('',#1405,#319);
#209=LINE('',#1410,#320);
#210=LINE('',#1413,#321);
#211=LINE('',#1416,#322);
#212=LINE('',#1417,#323);
#213=LINE('',#1421,#324);
#214=LINE('',#1422,#325);
#215=LINE('',#1425,#326);
#216=LINE('',#1427,#327);
#217=LINE('',#1429,#328);
#218=LINE('',#1431,#329);
#219=LINE('',#1432,#330);
#220=LINE('',#1435,#331);
#221=LINE('',#1436,#332);
#222=LINE('',#1442,#333);
#223=LINE('',#1445,#334);
#224=LINE('',#1448,#335);
#225=LINE('',#1452,#336);
#226=LINE('',#1454,#337);
#227=LINE('',#1455,#338);
#228=LINE('',#1458,#339);
#229=LINE('',#1459,#340);
#230=LINE('',#1463,#341);
#231=LINE('',#1469,#342);
#232=LINE('',#1472,#343);
#233=LINE('',#1475,#344);
#234=LINE('',#1479,#345);
#235=LINE('',#1481,#346);
#236=LINE('',#1482,#347);
#237=LINE('',#1485,#348);
#238=LINE('',#1486,#349);
#239=LINE('',#1490,#350);
#240=LINE('',#1494,#351);
#241=LINE('',#1496,#352);
#242=LINE('',#1498,#353);
#243=LINE('',#1499,#354);
#244=LINE('',#1502,#355);
#245=LINE('',#1504,#356);
#246=LINE('',#1505,#357);
#247=LINE('',#1508,#358);
#248=LINE('',#1510,#359);
#249=LINE('',#1511,#360);
#250=LINE('',#1683,#361);
#251=LINE('',#1685,#362);
#252=LINE('',#1687,#363);
#253=LINE('',#1689,#364);
#254=LINE('',#1691,#365);
#255=LINE('',#1693,#366);
#256=LINE('',#1695,#367);
#257=LINE('',#1696,#368);
#258=LINE('',#1699,#369);
#259=LINE('',#1701,#370);
#260=LINE('',#1702,#371);
#261=LINE('',#1704,#372);
#262=LINE('',#1706,#373);
#263=LINE('',#1707,#374);
#264=LINE('',#1709,#375);
#265=LINE('',#1711,#376);
#266=LINE('',#1712,#377);
#267=LINE('',#1714,#378);
#268=LINE('',#1717,#379);
#269=LINE('',#1718,#380);
#270=LINE('',#1722,#381);
#271=LINE('',#1724,#382);
#272=LINE('',#1726,#383);
#273=LINE('',#1727,#384);
#274=LINE('',#1733,#385);
#275=LINE('',#1736,#386);
#276=LINE('',#1738,#387);
#277=LINE('',#1739,#388);
#278=LINE('',#1746,#389);
#279=LINE('',#1748,#390);
#280=LINE('',#1750,#391);
#281=LINE('',#1751,#392);
#282=LINE('',#1757,#393);
#283=LINE('',#1760,#394);
#284=LINE('',#1762,#395);
#285=LINE('',#1763,#396);
#286=LINE('',#1765,#397);
#287=LINE('',#1766,#398);
#288=LINE('',#1769,#399);
#289=LINE('',#1770,#400);
#290=LINE('',#1772,#401);
#291=LINE('',#1778,#402);
#292=LINE('',#1780,#403);
#293=LINE('',#1781,#404);
#294=LINE('',#1784,#405);
#295=LINE('',#1785,#406);
#296=LINE('',#1787,#407);
#297=LINE('',#1788,#408);
#298=VECTOR('',#1080,1.);
#299=VECTOR('',#1083,1.);
#300=VECTOR('',#1088,1.);
#301=VECTOR('',#1089,1.);
#302=VECTOR('',#1092,1.);
#303=VECTOR('',#1095,1.);
#304=VECTOR('',#1096,1.);
#305=VECTOR('',#1099,1.);
#306=VECTOR('',#1102,1.);
#307=VECTOR('',#1107,1.);
#308=VECTOR('',#1108,1.);
#309=VECTOR('',#1109,1.);
#310=VECTOR('',#1114,1.);
#311=VECTOR('',#1117,1.);
#312=VECTOR('',#1120,1.);
#313=VECTOR('',#1123,1.);
#314=VECTOR('',#1124,1.);
#315=VECTOR('',#1125,1.);
#316=VECTOR('',#1128,1.);
#317=VECTOR('',#1129,1.);
#318=VECTOR('',#1130,1.);
#319=VECTOR('',#1135,1.);
#320=VECTOR('',#1140,1.);
#321=VECTOR('',#1143,1.);
#322=VECTOR('',#1148,1.);
#323=VECTOR('',#1149,1.);
#324=VECTOR('',#1154,1.);
#325=VECTOR('',#1155,1.);
#326=VECTOR('',#1158,1.);
#327=VECTOR('',#1159,1.);
#328=VECTOR('',#1160,1.);
#329=VECTOR('',#1161,1.);
#330=VECTOR('',#1162,1.);
#331=VECTOR('',#1165,1.);
#332=VECTOR('',#1166,1.);
#333=VECTOR('',#1171,1.);
#334=VECTOR('',#1174,1.);
#335=VECTOR('',#1177,1.);
#336=VECTOR('',#1180,1.);
#337=VECTOR('',#1181,1.);
#338=VECTOR('',#1182,1.);
#339=VECTOR('',#1185,1.);
#340=VECTOR('',#1186,1.);
#341=VECTOR('',#1191,1.);
#342=VECTOR('',#1196,1.);
#343=VECTOR('',#1199,1.);
#344=VECTOR('',#1202,1.);
#345=VECTOR('',#1205,1.);
#346=VECTOR('',#1206,1.);
#347=VECTOR('',#1207,1.);
#348=VECTOR('',#1210,1.);
#349=VECTOR('',#1211,1.);
#350=VECTOR('',#1216,1.);
#351=VECTOR('',#1219,1.);
#352=VECTOR('',#1220,1.);
#353=VECTOR('',#1221,1.);
#354=VECTOR('',#1222,1.);
#355=VECTOR('',#1225,1.);
#356=VECTOR('',#1226,1.);
#357=VECTOR('',#1227,1.);
#358=VECTOR('',#1230,1.);
#359=VECTOR('',#1231,1.);
#360=VECTOR('',#1232,1.);
#361=VECTOR('',#1235,1.);
#362=VECTOR('',#1236,1.);
#363=VECTOR('',#1237,1.);
#364=VECTOR('',#1238,1.);
#365=VECTOR('',#1239,1.);
#366=VECTOR('',#1240,1.);
#367=VECTOR('',#1241,1.);
#368=VECTOR('',#1242,1.);
#369=VECTOR('',#1245,1.);
#370=VECTOR('',#1246,1.);
#371=VECTOR('',#1247,1.);
#372=VECTOR('',#1250,1.);
#373=VECTOR('',#1251,1.);
#374=VECTOR('',#1252,1.);
#375=VECTOR('',#1255,1.);
#376=VECTOR('',#1256,1.);
#377=VECTOR('',#1257,1.);
#378=VECTOR('',#1260,1.);
#379=VECTOR('',#1263,1.);
#380=VECTOR('',#1264,1.);
#381=VECTOR('',#1267,1.);
#382=VECTOR('',#1268,1.);
#383=VECTOR('',#1269,1.);
#384=VECTOR('',#1270,1.);
#385=VECTOR('',#1277,1.);
#386=VECTOR('',#1280,1.);
#387=VECTOR('',#1281,1.);
#388=VECTOR('',#1282,1.);
#389=VECTOR('',#1291,1.);
#390=VECTOR('',#1292,1.);
#391=VECTOR('',#1293,1.);
#392=VECTOR('',#1294,1.);
#393=VECTOR('',#1301,1.);
#394=VECTOR('',#1304,1.);
#395=VECTOR('',#1305,1.);
#396=VECTOR('',#1306,1.);
#397=VECTOR('',#1309,1.);
#398=VECTOR('',#1310,1.);
#399=VECTOR('',#1313,1.);
#400=VECTOR('',#1314,1.);
#401=VECTOR('',#1317,1.);
#402=VECTOR('',#1324,1.);
#403=VECTOR('',#1327,1.);
#404=VECTOR('',#1328,1.);
#405=VECTOR('',#1331,1.);
#406=VECTOR('',#1332,1.);
#407=VECTOR('',#1335,1.);
#408=VECTOR('',#1336,1.);
#409=VERTEX_POINT('',#1343);
#410=VERTEX_POINT('',#1344);
#411=VERTEX_POINT('',#1346);
#412=VERTEX_POINT('',#1348);
#413=VERTEX_POINT('',#1352);
#414=VERTEX_POINT('',#1354);
#415=VERTEX_POINT('',#1356);
#416=VERTEX_POINT('',#1360);
#417=VERTEX_POINT('',#1364);
#418=VERTEX_POINT('',#1365);
#419=VERTEX_POINT('',#1367);
#420=VERTEX_POINT('',#1369);
#421=VERTEX_POINT('',#1373);
#422=VERTEX_POINT('',#1375);
#423=VERTEX_POINT('',#1379);
#424=VERTEX_POINT('',#1381);
#425=VERTEX_POINT('',#1383);
#426=VERTEX_POINT('',#1385);
#427=VERTEX_POINT('',#1387);
#428=VERTEX_POINT('',#1391);
#429=VERTEX_POINT('',#1393);
#430=VERTEX_POINT('',#1397);
#431=VERTEX_POINT('',#1399);
#432=VERTEX_POINT('',#1401);
#433=VERTEX_POINT('',#1407);
#434=VERTEX_POINT('',#1409);
#435=VERTEX_POINT('',#1412);
#436=VERTEX_POINT('',#1420);
#437=VERTEX_POINT('',#1424);
#438=VERTEX_POINT('',#1426);
#439=VERTEX_POINT('',#1428);
#440=VERTEX_POINT('',#1430);
#441=VERTEX_POINT('',#1434);
#442=VERTEX_POINT('',#1438);
#443=VERTEX_POINT('',#1439);
#444=VERTEX_POINT('',#1441);
#445=VERTEX_POINT('',#1443);
#446=VERTEX_POINT('',#1447);
#447=VERTEX_POINT('',#1449);
#448=VERTEX_POINT('',#1451);
#449=VERTEX_POINT('',#1453);
#450=VERTEX_POINT('',#1457);
#451=VERTEX_POINT('',#1461);
#452=VERTEX_POINT('',#1465);
#453=VERTEX_POINT('',#1466);
#454=VERTEX_POINT('',#1468);
#455=VERTEX_POINT('',#1470);
#456=VERTEX_POINT('',#1474);
#457=VERTEX_POINT('',#1476);
#458=VERTEX_POINT('',#1478);
#459=VERTEX_POINT('',#1480);
#460=VERTEX_POINT('',#1484);
#461=VERTEX_POINT('',#1488);
#462=VERTEX_POINT('',#1492);
#463=VERTEX_POINT('',#1493);
#464=VERTEX_POINT('',#1495);
#465=VERTEX_POINT('',#1497);
#466=VERTEX_POINT('',#1501);
#467=VERTEX_POINT('',#1503);
#468=VERTEX_POINT('',#1507);
#469=VERTEX_POINT('',#1509);
#470=VERTEX_POINT('',#1682);
#471=VERTEX_POINT('',#1684);
#472=VERTEX_POINT('',#1686);
#473=VERTEX_POINT('',#1688);
#474=VERTEX_POINT('',#1690);
#475=VERTEX_POINT('',#1692);
#476=VERTEX_POINT('',#1694);
#477=VERTEX_POINT('',#1698);
#478=VERTEX_POINT('',#1700);
#479=VERTEX_POINT('',#1705);
#480=VERTEX_POINT('',#1710);
#481=VERTEX_POINT('',#1716);
#482=VERTEX_POINT('',#1720);
#483=VERTEX_POINT('',#1721);
#484=VERTEX_POINT('',#1723);
#485=VERTEX_POINT('',#1725);
#486=VERTEX_POINT('',#1729);
#487=VERTEX_POINT('',#1731);
#488=VERTEX_POINT('',#1735);
#489=VERTEX_POINT('',#1737);
#490=VERTEX_POINT('',#1744);
#491=VERTEX_POINT('',#1745);
#492=VERTEX_POINT('',#1747);
#493=VERTEX_POINT('',#1749);
#494=VERTEX_POINT('',#1753);
#495=VERTEX_POINT('',#1755);
#496=VERTEX_POINT('',#1759);
#497=VERTEX_POINT('',#1761);
#498=VERTEX_POINT('',#1768);
#499=VERTEX_POINT('',#1774);
#500=VERTEX_POINT('',#1776);
#501=VERTEX_POINT('',#1783);
#502=EDGE_CURVE('',#409,#410,#187,.T.);
#503=EDGE_CURVE('',#409,#411,#159,.T.);
#504=EDGE_CURVE('',#411,#412,#188,.T.);
#505=EDGE_CURVE('',#412,#410,#160,.T.);
#506=EDGE_CURVE('',#413,#409,#189,.T.);
#507=EDGE_CURVE('',#413,#414,#190,.T.);
#508=EDGE_CURVE('',#415,#414,#161,.T.);
#509=EDGE_CURVE('',#411,#415,#191,.T.);
#510=EDGE_CURVE('',#416,#415,#192,.T.);
#511=EDGE_CURVE('',#412,#416,#193,.T.);
#512=EDGE_CURVE('',#417,#418,#194,.T.);
#513=EDGE_CURVE('',#417,#419,#162,.T.);
#514=EDGE_CURVE('',#419,#420,#195,.T.);
#515=EDGE_CURVE('',#420,#418,#163,.T.);
#516=EDGE_CURVE('',#421,#419,#196,.T.);
#517=EDGE_CURVE('',#422,#421,#197,.T.);
#518=EDGE_CURVE('',#422,#420,#198,.T.);
#519=EDGE_CURVE('',#423,#416,#164,.T.);
#520=EDGE_CURVE('',#414,#424,#199,.T.);
#521=EDGE_CURVE('',#424,#425,#165,.T.);
#522=EDGE_CURVE('',#425,#426,#200,.T.);
#523=EDGE_CURVE('',#426,#427,#166,.T.);
#524=EDGE_CURVE('',#427,#423,#201,.T.);
#525=EDGE_CURVE('',#425,#428,#202,.T.);
#526=EDGE_CURVE('',#429,#428,#203,.T.);
#527=EDGE_CURVE('',#426,#429,#204,.T.);
#528=EDGE_CURVE('',#430,#424,#205,.T.);
#529=EDGE_CURVE('',#431,#430,#206,.T.);
#530=EDGE_CURVE('',#432,#431,#207,.T.);
#531=EDGE_CURVE('',#428,#432,#167,.T.);
#532=EDGE_CURVE('',#430,#413,#208,.T.);
#533=EDGE_CURVE('',#421,#433,#168,.T.);
#534=EDGE_CURVE('',#433,#434,#209,.T.);
#535=EDGE_CURVE('',#434,#429,#169,.T.);
#536=EDGE_CURVE('',#432,#435,#210,.T.);
#537=EDGE_CURVE('',#435,#422,#170,.T.);
#538=EDGE_CURVE('',#427,#434,#211,.T.);
#539=EDGE_CURVE('',#423,#433,#212,.T.);
#540=EDGE_CURVE('',#436,#431,#213,.T.);
#541=EDGE_CURVE('',#435,#436,#214,.T.);
#542=EDGE_CURVE('',#437,#417,#215,.T.);
#543=EDGE_CURVE('',#438,#437,#216,.T.);
#544=EDGE_CURVE('',#438,#439,#217,.T.);
#545=EDGE_CURVE('',#439,#440,#218,.T.);
#546=EDGE_CURVE('',#410,#440,#219,.T.);
#547=EDGE_CURVE('',#418,#441,#220,.T.);
#548=EDGE_CURVE('',#441,#437,#221,.T.);
#549=EDGE_CURVE('',#442,#443,#171,.T.);
#550=EDGE_CURVE('',#443,#444,#222,.T.);
#551=EDGE_CURVE('',#444,#445,#172,.T.);
#552=EDGE_CURVE('',#445,#442,#223,.T.);
#553=EDGE_CURVE('',#446,#444,#224,.T.);
#554=EDGE_CURVE('',#447,#446,#173,.T.);
#555=EDGE_CURVE('',#448,#447,#225,.T.);
#556=EDGE_CURVE('',#448,#449,#226,.T.);
#557=EDGE_CURVE('',#449,#445,#227,.T.);
#558=EDGE_CURVE('',#450,#443,#228,.T.);
#559=EDGE_CURVE('',#446,#450,#229,.T.);
#560=EDGE_CURVE('',#450,#451,#174,.T.);
#561=EDGE_CURVE('',#451,#447,#230,.T.);
#562=EDGE_CURVE('',#452,#453,#175,.T.);
#563=EDGE_CURVE('',#453,#454,#231,.T.);
#564=EDGE_CURVE('',#454,#455,#176,.T.);
#565=EDGE_CURVE('',#455,#452,#232,.T.);
#566=EDGE_CURVE('',#454,#456,#233,.T.);
#567=EDGE_CURVE('',#457,#456,#177,.T.);
#568=EDGE_CURVE('',#458,#457,#234,.T.);
#569=EDGE_CURVE('',#459,#458,#235,.T.);
#570=EDGE_CURVE('',#459,#455,#236,.T.);
#571=EDGE_CURVE('',#453,#460,#237,.T.);
#572=EDGE_CURVE('',#456,#460,#238,.T.);
#573=EDGE_CURVE('',#460,#461,#178,.T.);
#574=EDGE_CURVE('',#461,#457,#239,.T.);
#575=EDGE_CURVE('',#462,#463,#240,.T.);
#576=EDGE_CURVE('',#464,#462,#241,.T.);
#577=EDGE_CURVE('',#465,#464,#242,.T.);
#578=EDGE_CURVE('',#465,#463,#243,.T.);
#579=EDGE_CURVE('',#463,#466,#244,.T.);
#580=EDGE_CURVE('',#465,#467,#245,.T.);
#581=EDGE_CURVE('',#467,#466,#246,.T.);
#582=EDGE_CURVE('',#466,#468,#247,.T.);
#583=EDGE_CURVE('',#469,#467,#248,.T.);
#584=EDGE_CURVE('',#469,#468,#249,.T.);
#585=EDGE_CURVE('',#468,#462,#18,.T.);
#586=EDGE_CURVE('',#464,#469,#17,.T.);
#587=EDGE_CURVE('',#467,#470,#250,.T.);
#588=EDGE_CURVE('',#470,#471,#251,.T.);
#589=EDGE_CURVE('',#471,#472,#252,.T.);
#590=EDGE_CURVE('',#473,#472,#253,.T.);
#591=EDGE_CURVE('',#474,#473,#254,.T.);
#592=EDGE_CURVE('',#474,#475,#255,.T.);
#593=EDGE_CURVE('',#475,#476,#256,.T.);
#594=EDGE_CURVE('',#476,#465,#257,.T.);
#595=EDGE_CURVE('',#477,#465,#258,.T.);
#596=EDGE_CURVE('',#478,#477,#259,.T.);
#597=EDGE_CURVE('',#470,#478,#260,.T.);
#598=EDGE_CURVE('',#471,#459,#261,.T.);
#599=EDGE_CURVE('',#479,#478,#262,.T.);
#600=EDGE_CURVE('',#452,#479,#263,.T.);
#601=EDGE_CURVE('',#477,#449,#264,.T.);
#602=EDGE_CURVE('',#480,#476,#265,.T.);
#603=EDGE_CURVE('',#442,#480,#266,.T.);
#604=EDGE_CURVE('',#472,#458,#267,.T.);
#605=EDGE_CURVE('',#479,#481,#268,.T.);
#606=EDGE_CURVE('',#461,#481,#269,.T.);
#607=EDGE_CURVE('',#482,#483,#270,.T.);
#608=EDGE_CURVE('',#484,#482,#271,.T.);
#609=EDGE_CURVE('',#485,#484,#272,.T.);
#610=EDGE_CURVE('',#485,#483,#273,.T.);
#611=EDGE_CURVE('',#483,#486,#179,.T.);
#612=EDGE_CURVE('',#487,#485,#180,.T.);
#613=EDGE_CURVE('',#487,#486,#274,.T.);
#614=EDGE_CURVE('',#486,#488,#275,.T.);
#615=EDGE_CURVE('',#489,#487,#276,.T.);
#616=EDGE_CURVE('',#489,#488,#277,.T.);
#617=EDGE_CURVE('',#488,#482,#181,.T.);
#618=EDGE_CURVE('',#484,#489,#182,.T.);
#619=EDGE_CURVE('',#490,#491,#278,.T.);
#620=EDGE_CURVE('',#490,#492,#279,.T.);
#621=EDGE_CURVE('',#493,#492,#280,.T.);
#622=EDGE_CURVE('',#491,#493,#281,.T.);
#623=EDGE_CURVE('',#491,#494,#183,.T.);
#624=EDGE_CURVE('',#495,#493,#184,.T.);
#625=EDGE_CURVE('',#494,#495,#282,.T.);
#626=EDGE_CURVE('',#494,#496,#283,.T.);
#627=EDGE_CURVE('',#497,#495,#284,.T.);
#628=EDGE_CURVE('',#496,#497,#285,.T.);
#629=EDGE_CURVE('',#496,#448,#286,.T.);
#630=EDGE_CURVE('',#481,#497,#287,.T.);
#631=EDGE_CURVE('',#498,#480,#288,.T.);
#632=EDGE_CURVE('',#498,#451,#289,.T.);
#633=EDGE_CURVE('',#475,#498,#290,.T.);
#634=EDGE_CURVE('',#499,#474,#185,.T.);
#635=EDGE_CURVE('',#500,#473,#186,.T.);
#636=EDGE_CURVE('',#499,#500,#291,.T.);
#637=EDGE_CURVE('',#439,#499,#292,.T.);
#638=EDGE_CURVE('',#440,#500,#293,.T.);
#639=EDGE_CURVE('',#501,#438,#294,.T.);
#640=EDGE_CURVE('',#501,#441,#295,.T.);
#641=EDGE_CURVE('',#501,#490,#296,.T.);
#642=EDGE_CURVE('',#492,#436,#297,.T.);
#643=ORIENTED_EDGE('',*,*,#502,.F.);
#644=ORIENTED_EDGE('',*,*,#503,.T.);
#645=ORIENTED_EDGE('',*,*,#504,.T.);
#646=ORIENTED_EDGE('',*,*,#505,.T.);
#647=ORIENTED_EDGE('',*,*,#506,.F.);
#648=ORIENTED_EDGE('',*,*,#507,.T.);
#649=ORIENTED_EDGE('',*,*,#508,.F.);
#650=ORIENTED_EDGE('',*,*,#509,.F.);
#651=ORIENTED_EDGE('',*,*,#503,.F.);
#652=ORIENTED_EDGE('',*,*,#504,.F.);
#653=ORIENTED_EDGE('',*,*,#509,.T.);
#654=ORIENTED_EDGE('',*,*,#510,.F.);
#655=ORIENTED_EDGE('',*,*,#511,.F.);
#656=ORIENTED_EDGE('',*,*,#512,.F.);
#657=ORIENTED_EDGE('',*,*,#513,.T.);
#658=ORIENTED_EDGE('',*,*,#514,.T.);
#659=ORIENTED_EDGE('',*,*,#515,.T.);
#660=ORIENTED_EDGE('',*,*,#514,.F.);
#661=ORIENTED_EDGE('',*,*,#516,.F.);
#662=ORIENTED_EDGE('',*,*,#517,.F.);
#663=ORIENTED_EDGE('',*,*,#518,.T.);
#664=ORIENTED_EDGE('',*,*,#519,.T.);
#665=ORIENTED_EDGE('',*,*,#510,.T.);
#666=ORIENTED_EDGE('',*,*,#508,.T.);
#667=ORIENTED_EDGE('',*,*,#520,.T.);
#668=ORIENTED_EDGE('',*,*,#521,.T.);
#669=ORIENTED_EDGE('',*,*,#522,.T.);
#670=ORIENTED_EDGE('',*,*,#523,.T.);
#671=ORIENTED_EDGE('',*,*,#524,.T.);
#672=ORIENTED_EDGE('',*,*,#522,.F.);
#673=ORIENTED_EDGE('',*,*,#525,.T.);
#674=ORIENTED_EDGE('',*,*,#526,.F.);
#675=ORIENTED_EDGE('',*,*,#527,.F.);
#676=ORIENTED_EDGE('',*,*,#521,.F.);
#677=ORIENTED_EDGE('',*,*,#528,.F.);
#678=ORIENTED_EDGE('',*,*,#529,.F.);
#679=ORIENTED_EDGE('',*,*,#530,.F.);
#680=ORIENTED_EDGE('',*,*,#531,.F.);
#681=ORIENTED_EDGE('',*,*,#525,.F.);
#682=ORIENTED_EDGE('',*,*,#520,.F.);
#683=ORIENTED_EDGE('',*,*,#507,.F.);
#684=ORIENTED_EDGE('',*,*,#532,.F.);
#685=ORIENTED_EDGE('',*,*,#528,.T.);
#686=ORIENTED_EDGE('',*,*,#533,.T.);
#687=ORIENTED_EDGE('',*,*,#534,.T.);
#688=ORIENTED_EDGE('',*,*,#535,.T.);
#689=ORIENTED_EDGE('',*,*,#526,.T.);
#690=ORIENTED_EDGE('',*,*,#531,.T.);
#691=ORIENTED_EDGE('',*,*,#536,.T.);
#692=ORIENTED_EDGE('',*,*,#537,.T.);
#693=ORIENTED_EDGE('',*,*,#517,.T.);
#694=ORIENTED_EDGE('',*,*,#524,.F.);
#695=ORIENTED_EDGE('',*,*,#538,.T.);
#696=ORIENTED_EDGE('',*,*,#534,.F.);
#697=ORIENTED_EDGE('',*,*,#539,.F.);
#698=ORIENTED_EDGE('',*,*,#523,.F.);
#699=ORIENTED_EDGE('',*,*,#527,.T.);
#700=ORIENTED_EDGE('',*,*,#535,.F.);
#701=ORIENTED_EDGE('',*,*,#538,.F.);
#702=ORIENTED_EDGE('',*,*,#536,.F.);
#703=ORIENTED_EDGE('',*,*,#530,.T.);
#704=ORIENTED_EDGE('',*,*,#540,.F.);
#705=ORIENTED_EDGE('',*,*,#541,.F.);
#706=ORIENTED_EDGE('',*,*,#542,.F.);
#707=ORIENTED_EDGE('',*,*,#543,.F.);
#708=ORIENTED_EDGE('',*,*,#544,.T.);
#709=ORIENTED_EDGE('',*,*,#545,.T.);
#710=ORIENTED_EDGE('',*,*,#546,.F.);
#711=ORIENTED_EDGE('',*,*,#505,.F.);
#712=ORIENTED_EDGE('',*,*,#511,.T.);
#713=ORIENTED_EDGE('',*,*,#519,.F.);
#714=ORIENTED_EDGE('',*,*,#539,.T.);
#715=ORIENTED_EDGE('',*,*,#533,.F.);
#716=ORIENTED_EDGE('',*,*,#516,.T.);
#717=ORIENTED_EDGE('',*,*,#513,.F.);
#718=ORIENTED_EDGE('',*,*,#512,.T.);
#719=ORIENTED_EDGE('',*,*,#547,.T.);
#720=ORIENTED_EDGE('',*,*,#548,.T.);
#721=ORIENTED_EDGE('',*,*,#542,.T.);
#722=ORIENTED_EDGE('',*,*,#549,.T.);
#723=ORIENTED_EDGE('',*,*,#550,.T.);
#724=ORIENTED_EDGE('',*,*,#551,.T.);
#725=ORIENTED_EDGE('',*,*,#552,.T.);
#726=ORIENTED_EDGE('',*,*,#551,.F.);
#727=ORIENTED_EDGE('',*,*,#553,.F.);
#728=ORIENTED_EDGE('',*,*,#554,.F.);
#729=ORIENTED_EDGE('',*,*,#555,.F.);
#730=ORIENTED_EDGE('',*,*,#556,.T.);
#731=ORIENTED_EDGE('',*,*,#557,.T.);
#732=ORIENTED_EDGE('',*,*,#550,.F.);
#733=ORIENTED_EDGE('',*,*,#558,.F.);
#734=ORIENTED_EDGE('',*,*,#559,.F.);
#735=ORIENTED_EDGE('',*,*,#553,.T.);
#736=ORIENTED_EDGE('',*,*,#554,.T.);
#737=ORIENTED_EDGE('',*,*,#559,.T.);
#738=ORIENTED_EDGE('',*,*,#560,.T.);
#739=ORIENTED_EDGE('',*,*,#561,.T.);
#740=ORIENTED_EDGE('',*,*,#562,.T.);
#741=ORIENTED_EDGE('',*,*,#563,.T.);
#742=ORIENTED_EDGE('',*,*,#564,.T.);
#743=ORIENTED_EDGE('',*,*,#565,.T.);
#744=ORIENTED_EDGE('',*,*,#564,.F.);
#745=ORIENTED_EDGE('',*,*,#566,.T.);
#746=ORIENTED_EDGE('',*,*,#567,.F.);
#747=ORIENTED_EDGE('',*,*,#568,.F.);
#748=ORIENTED_EDGE('',*,*,#569,.F.);
#749=ORIENTED_EDGE('',*,*,#570,.T.);
#750=ORIENTED_EDGE('',*,*,#563,.F.);
#751=ORIENTED_EDGE('',*,*,#571,.T.);
#752=ORIENTED_EDGE('',*,*,#572,.F.);
#753=ORIENTED_EDGE('',*,*,#566,.F.);
#754=ORIENTED_EDGE('',*,*,#573,.T.);
#755=ORIENTED_EDGE('',*,*,#574,.T.);
#756=ORIENTED_EDGE('',*,*,#567,.T.);
#757=ORIENTED_EDGE('',*,*,#572,.T.);
#758=ORIENTED_EDGE('',*,*,#575,.F.);
#759=ORIENTED_EDGE('',*,*,#576,.F.);
#760=ORIENTED_EDGE('',*,*,#577,.F.);
#761=ORIENTED_EDGE('',*,*,#578,.T.);
#762=ORIENTED_EDGE('',*,*,#579,.F.);
#763=ORIENTED_EDGE('',*,*,#578,.F.);
#764=ORIENTED_EDGE('',*,*,#580,.T.);
#765=ORIENTED_EDGE('',*,*,#581,.T.);
#766=ORIENTED_EDGE('',*,*,#582,.F.);
#767=ORIENTED_EDGE('',*,*,#581,.F.);
#768=ORIENTED_EDGE('',*,*,#583,.F.);
#769=ORIENTED_EDGE('',*,*,#584,.T.);
#770=ORIENTED_EDGE('',*,*,#585,.F.);
#771=ORIENTED_EDGE('',*,*,#584,.F.);
#772=ORIENTED_EDGE('',*,*,#586,.F.);
#773=ORIENTED_EDGE('',*,*,#576,.T.);
#774=ORIENTED_EDGE('',*,*,#577,.T.);
#775=ORIENTED_EDGE('',*,*,#586,.T.);
#776=ORIENTED_EDGE('',*,*,#583,.T.);
#777=ORIENTED_EDGE('',*,*,#587,.T.);
#778=ORIENTED_EDGE('',*,*,#588,.T.);
#779=ORIENTED_EDGE('',*,*,#589,.T.);
#780=ORIENTED_EDGE('',*,*,#590,.F.);
#781=ORIENTED_EDGE('',*,*,#591,.F.);
#782=ORIENTED_EDGE('',*,*,#592,.T.);
#783=ORIENTED_EDGE('',*,*,#593,.T.);
#784=ORIENTED_EDGE('',*,*,#594,.T.);
#785=ORIENTED_EDGE('',*,*,#580,.F.);
#786=ORIENTED_EDGE('',*,*,#595,.F.);
#787=ORIENTED_EDGE('',*,*,#596,.F.);
#788=ORIENTED_EDGE('',*,*,#597,.F.);
#789=ORIENTED_EDGE('',*,*,#587,.F.);
#790=ORIENTED_EDGE('',*,*,#565,.F.);
#791=ORIENTED_EDGE('',*,*,#570,.F.);
#792=ORIENTED_EDGE('',*,*,#598,.F.);
#793=ORIENTED_EDGE('',*,*,#588,.F.);
#794=ORIENTED_EDGE('',*,*,#597,.T.);
#795=ORIENTED_EDGE('',*,*,#599,.F.);
#796=ORIENTED_EDGE('',*,*,#600,.F.);
#797=ORIENTED_EDGE('',*,*,#552,.F.);
#798=ORIENTED_EDGE('',*,*,#557,.F.);
#799=ORIENTED_EDGE('',*,*,#601,.F.);
#800=ORIENTED_EDGE('',*,*,#595,.T.);
#801=ORIENTED_EDGE('',*,*,#594,.F.);
#802=ORIENTED_EDGE('',*,*,#602,.F.);
#803=ORIENTED_EDGE('',*,*,#603,.F.);
#804=ORIENTED_EDGE('',*,*,#598,.T.);
#805=ORIENTED_EDGE('',*,*,#569,.T.);
#806=ORIENTED_EDGE('',*,*,#604,.F.);
#807=ORIENTED_EDGE('',*,*,#589,.F.);
#808=ORIENTED_EDGE('',*,*,#562,.F.);
#809=ORIENTED_EDGE('',*,*,#600,.T.);
#810=ORIENTED_EDGE('',*,*,#605,.T.);
#811=ORIENTED_EDGE('',*,*,#606,.F.);
#812=ORIENTED_EDGE('',*,*,#573,.F.);
#813=ORIENTED_EDGE('',*,*,#571,.F.);
#814=ORIENTED_EDGE('',*,*,#607,.F.);
#815=ORIENTED_EDGE('',*,*,#608,.F.);
#816=ORIENTED_EDGE('',*,*,#609,.F.);
#817=ORIENTED_EDGE('',*,*,#610,.T.);
#818=ORIENTED_EDGE('',*,*,#611,.F.);
#819=ORIENTED_EDGE('',*,*,#610,.F.);
#820=ORIENTED_EDGE('',*,*,#612,.F.);
#821=ORIENTED_EDGE('',*,*,#613,.T.);
#822=ORIENTED_EDGE('',*,*,#614,.F.);
#823=ORIENTED_EDGE('',*,*,#613,.F.);
#824=ORIENTED_EDGE('',*,*,#615,.F.);
#825=ORIENTED_EDGE('',*,*,#616,.T.);
#826=ORIENTED_EDGE('',*,*,#617,.F.);
#827=ORIENTED_EDGE('',*,*,#616,.F.);
#828=ORIENTED_EDGE('',*,*,#618,.F.);
#829=ORIENTED_EDGE('',*,*,#608,.T.);
#830=ORIENTED_EDGE('',*,*,#619,.F.);
#831=ORIENTED_EDGE('',*,*,#620,.T.);
#832=ORIENTED_EDGE('',*,*,#621,.F.);
#833=ORIENTED_EDGE('',*,*,#622,.F.);
#834=ORIENTED_EDGE('',*,*,#614,.T.);
#835=ORIENTED_EDGE('',*,*,#617,.T.);
#836=ORIENTED_EDGE('',*,*,#607,.T.);
#837=ORIENTED_EDGE('',*,*,#611,.T.);
#838=ORIENTED_EDGE('',*,*,#623,.F.);
#839=ORIENTED_EDGE('',*,*,#622,.T.);
#840=ORIENTED_EDGE('',*,*,#624,.F.);
#841=ORIENTED_EDGE('',*,*,#625,.F.);
#842=ORIENTED_EDGE('',*,*,#626,.F.);
#843=ORIENTED_EDGE('',*,*,#625,.T.);
#844=ORIENTED_EDGE('',*,*,#627,.F.);
#845=ORIENTED_EDGE('',*,*,#628,.F.);
#846=ORIENTED_EDGE('',*,*,#582,.T.);
#847=ORIENTED_EDGE('',*,*,#585,.T.);
#848=ORIENTED_EDGE('',*,*,#575,.T.);
#849=ORIENTED_EDGE('',*,*,#579,.T.);
#850=ORIENTED_EDGE('',*,*,#601,.T.);
#851=ORIENTED_EDGE('',*,*,#556,.F.);
#852=ORIENTED_EDGE('',*,*,#629,.F.);
#853=ORIENTED_EDGE('',*,*,#628,.T.);
#854=ORIENTED_EDGE('',*,*,#630,.F.);
#855=ORIENTED_EDGE('',*,*,#605,.F.);
#856=ORIENTED_EDGE('',*,*,#599,.T.);
#857=ORIENTED_EDGE('',*,*,#596,.T.);
#858=ORIENTED_EDGE('',*,*,#549,.F.);
#859=ORIENTED_EDGE('',*,*,#603,.T.);
#860=ORIENTED_EDGE('',*,*,#631,.F.);
#861=ORIENTED_EDGE('',*,*,#632,.T.);
#862=ORIENTED_EDGE('',*,*,#560,.F.);
#863=ORIENTED_EDGE('',*,*,#558,.T.);
#864=ORIENTED_EDGE('',*,*,#602,.T.);
#865=ORIENTED_EDGE('',*,*,#593,.F.);
#866=ORIENTED_EDGE('',*,*,#633,.T.);
#867=ORIENTED_EDGE('',*,*,#631,.T.);
#868=ORIENTED_EDGE('',*,*,#634,.T.);
#869=ORIENTED_EDGE('',*,*,#591,.T.);
#870=ORIENTED_EDGE('',*,*,#635,.F.);
#871=ORIENTED_EDGE('',*,*,#636,.F.);
#872=ORIENTED_EDGE('',*,*,#637,.T.);
#873=ORIENTED_EDGE('',*,*,#636,.T.);
#874=ORIENTED_EDGE('',*,*,#638,.F.);
#875=ORIENTED_EDGE('',*,*,#545,.F.);
#876=ORIENTED_EDGE('',*,*,#615,.T.);
#877=ORIENTED_EDGE('',*,*,#612,.T.);
#878=ORIENTED_EDGE('',*,*,#609,.T.);
#879=ORIENTED_EDGE('',*,*,#618,.T.);
#880=ORIENTED_EDGE('',*,*,#639,.T.);
#881=ORIENTED_EDGE('',*,*,#543,.T.);
#882=ORIENTED_EDGE('',*,*,#548,.F.);
#883=ORIENTED_EDGE('',*,*,#640,.F.);
#884=ORIENTED_EDGE('',*,*,#620,.F.);
#885=ORIENTED_EDGE('',*,*,#641,.F.);
#886=ORIENTED_EDGE('',*,*,#640,.T.);
#887=ORIENTED_EDGE('',*,*,#547,.F.);
#888=ORIENTED_EDGE('',*,*,#515,.F.);
#889=ORIENTED_EDGE('',*,*,#518,.F.);
#890=ORIENTED_EDGE('',*,*,#537,.F.);
#891=ORIENTED_EDGE('',*,*,#541,.T.);
#892=ORIENTED_EDGE('',*,*,#642,.F.);
#893=ORIENTED_EDGE('',*,*,#502,.T.);
#894=ORIENTED_EDGE('',*,*,#546,.T.);
#895=ORIENTED_EDGE('',*,*,#638,.T.);
#896=ORIENTED_EDGE('',*,*,#635,.T.);
#897=ORIENTED_EDGE('',*,*,#590,.T.);
#898=ORIENTED_EDGE('',*,*,#604,.T.);
#899=ORIENTED_EDGE('',*,*,#568,.T.);
#900=ORIENTED_EDGE('',*,*,#574,.F.);
#901=ORIENTED_EDGE('',*,*,#606,.T.);
#902=ORIENTED_EDGE('',*,*,#630,.T.);
#903=ORIENTED_EDGE('',*,*,#627,.T.);
#904=ORIENTED_EDGE('',*,*,#624,.T.);
#905=ORIENTED_EDGE('',*,*,#621,.T.);
#906=ORIENTED_EDGE('',*,*,#642,.T.);
#907=ORIENTED_EDGE('',*,*,#540,.T.);
#908=ORIENTED_EDGE('',*,*,#529,.T.);
#909=ORIENTED_EDGE('',*,*,#532,.T.);
#910=ORIENTED_EDGE('',*,*,#506,.T.);
#911=ORIENTED_EDGE('',*,*,#561,.F.);
#912=ORIENTED_EDGE('',*,*,#632,.F.);
#913=ORIENTED_EDGE('',*,*,#633,.F.);
#914=ORIENTED_EDGE('',*,*,#592,.F.);
#915=ORIENTED_EDGE('',*,*,#634,.F.);
#916=ORIENTED_EDGE('',*,*,#637,.F.);
#917=ORIENTED_EDGE('',*,*,#544,.F.);
#918=ORIENTED_EDGE('',*,*,#639,.F.);
#919=ORIENTED_EDGE('',*,*,#641,.T.);
#920=ORIENTED_EDGE('',*,*,#619,.T.);
#921=ORIENTED_EDGE('',*,*,#623,.T.);
#922=ORIENTED_EDGE('',*,*,#626,.T.);
#923=ORIENTED_EDGE('',*,*,#629,.T.);
#924=ORIENTED_EDGE('',*,*,#555,.T.);
#925=CYLINDRICAL_SURFACE('',#1000,0.25);
#926=CYLINDRICAL_SURFACE('',#1006,0.2);
#927=CYLINDRICAL_SURFACE('',#1010,0.5);
#928=CYLINDRICAL_SURFACE('',#1018,0.5);
#929=CYLINDRICAL_SURFACE('',#1027,0.2);
#930=CYLINDRICAL_SURFACE('',#1033,0.2);
#931=CYLINDRICAL_SURFACE('',#1035,0.2);
#932=CYLINDRICAL_SURFACE('',#1041,0.2);
#933=CYLINDRICAL_SURFACE('',#1053,0.802469912814146);
#934=CYLINDRICAL_SURFACE('',#1057,0.802469912814146);
#935=CYLINDRICAL_SURFACE('',#1061,1.);
#936=CYLINDRICAL_SURFACE('',#1068,1.35);
#937=ADVANCED_FACE('',(#58),#925,.T.);
#938=ADVANCED_FACE('',(#59),#22,.T.);
#939=ADVANCED_FACE('',(#60),#23,.T.);
#940=ADVANCED_FACE('',(#61),#926,.T.);
#941=ADVANCED_FACE('',(#62),#24,.T.);
#942=ADVANCED_FACE('',(#63),#927,.T.);
#943=ADVANCED_FACE('',(#64),#25,.F.);
#944=ADVANCED_FACE('',(#65),#26,.F.);
#945=ADVANCED_FACE('',(#66),#27,.F.);
#946=ADVANCED_FACE('',(#67),#928,.T.);
#947=ADVANCED_FACE('',(#68),#28,.T.);
#948=ADVANCED_FACE('',(#69),#29,.T.);
#949=ADVANCED_FACE('',(#70),#30,.F.);
#950=ADVANCED_FACE('',(#71),#31,.T.);
#951=ADVANCED_FACE('',(#72),#32,.T.);
#952=ADVANCED_FACE('',(#73),#929,.T.);
#953=ADVANCED_FACE('',(#74),#33,.T.);
#954=ADVANCED_FACE('',(#75),#34,.T.);
#955=ADVANCED_FACE('',(#76),#930,.T.);
#956=ADVANCED_FACE('',(#77),#931,.T.);
#957=ADVANCED_FACE('',(#78),#35,.T.);
#958=ADVANCED_FACE('',(#79),#36,.T.);
#959=ADVANCED_FACE('',(#80),#932,.T.);
#960=ADVANCED_FACE('',(#81),#37,.F.);
#961=ADVANCED_FACE('',(#82),#38,.F.);
#962=ADVANCED_FACE('',(#83),#39,.F.);
#963=ADVANCED_FACE('',(#84),#19,.F.);
#964=ADVANCED_FACE('',(#85),#40,.T.);
#965=ADVANCED_FACE('',(#86),#41,.F.);
#966=ADVANCED_FACE('',(#87),#42,.F.);
#967=ADVANCED_FACE('',(#88),#43,.F.);
#968=ADVANCED_FACE('',(#89),#44,.T.);
#969=ADVANCED_FACE('',(#90),#45,.T.);
#970=ADVANCED_FACE('',(#91),#46,.F.);
#971=ADVANCED_FACE('',(#92),#933,.F.);
#972=ADVANCED_FACE('',(#93),#47,.F.);
#973=ADVANCED_FACE('',(#94),#934,.F.);
#974=ADVANCED_FACE('',(#95,#14),#48,.T.);
#975=ADVANCED_FACE('',(#96),#935,.F.);
#976=ADVANCED_FACE('',(#97,#15),#49,.T.);
#977=ADVANCED_FACE('',(#98),#50,.T.);
#978=ADVANCED_FACE('',(#99),#51,.T.);
#979=ADVANCED_FACE('',(#100),#52,.T.);
#980=ADVANCED_FACE('',(#101),#936,.T.);
#981=ADVANCED_FACE('',(#102,#16),#53,.T.);
#982=ADVANCED_FACE('',(#103),#54,.T.);
#983=ADVANCED_FACE('',(#104),#55,.T.);
#984=ADVANCED_FACE('',(#105),#56,.T.);
#985=ADVANCED_FACE('',(#106),#57,.F.);
#986=CLOSED_SHELL('',(#937,#938,#939,#940,#941,#942,#943,#944,#945,#946,
#947,#948,#949,#950,#951,#952,#953,#954,#955,#956,#957,#958,#959,#960,#961,
#962,#963,#964,#965,#966,#967,#968,#969,#970,#971,#972,#973,#974,#975,#976,
#977,#978,#979,#980,#981,#982,#983,#984,#985));
#987=DERIVED_UNIT_ELEMENT(#989,1.);
#988=DERIVED_UNIT_ELEMENT(#1796,-3.);
#989=(
MASS_UNIT()
NAMED_UNIT(*)
SI_UNIT(.KILO.,.GRAM.)
);
#990=DERIVED_UNIT((#987,#988));
#991=MEASURE_REPRESENTATION_ITEM('density measure',
POSITIVE_RATIO_MEASURE(7850.),#990);
#992=PROPERTY_DEFINITION_REPRESENTATION(#997,#994);
#993=PROPERTY_DEFINITION_REPRESENTATION(#998,#995);
#994=REPRESENTATION('material name',(#996),#1793);
#995=REPRESENTATION('density',(#991),#1793);
#996=DESCRIPTIVE_REPRESENTATION_ITEM('Steel','Steel');
#997=PROPERTY_DEFINITION('material property','material name',#1803);
#998=PROPERTY_DEFINITION('material property','density of part',#1803);
#999=AXIS2_PLACEMENT_3D('',#1341,#1076,#1077);
#1000=AXIS2_PLACEMENT_3D('',#1342,#1078,#1079);
#1001=AXIS2_PLACEMENT_3D('',#1347,#1081,#1082);
#1002=AXIS2_PLACEMENT_3D('',#1350,#1084,#1085);
#1003=AXIS2_PLACEMENT_3D('',#1351,#1086,#1087);
#1004=AXIS2_PLACEMENT_3D('',#1357,#1090,#1091);
#1005=AXIS2_PLACEMENT_3D('',#1359,#1093,#1094);
#1006=AXIS2_PLACEMENT_3D('',#1363,#1097,#1098);
#1007=AXIS2_PLACEMENT_3D('',#1368,#1100,#1101);
#1008=AXIS2_PLACEMENT_3D('',#1371,#1103,#1104);
#1009=AXIS2_PLACEMENT_3D('',#1372,#1105,#1106);
#1010=AXIS2_PLACEMENT_3D('',#1378,#1110,#1111);
#1011=AXIS2_PLACEMENT_3D('',#1380,#1112,#1113);
#1012=AXIS2_PLACEMENT_3D('',#1384,#1115,#1116);
#1013=AXIS2_PLACEMENT_3D('',#1388,#1118,#1119);
#1014=AXIS2_PLACEMENT_3D('',#1390,#1121,#1122);
#1015=AXIS2_PLACEMENT_3D('',#1396,#1126,#1127);
#1016=AXIS2_PLACEMENT_3D('',#1403,#1131,#1132);
#1017=AXIS2_PLACEMENT_3D('',#1404,#1133,#1134);
#1018=AXIS2_PLACEMENT_3D('',#1406,#1136,#1137);
#1019=AXIS2_PLACEMENT_3D('',#1408,#1138,#1139);
#1020=AXIS2_PLACEMENT_3D('',#1411,#1141,#1142);
#1021=AXIS2_PLACEMENT_3D('',#1414,#1144,#1145);
#1022=AXIS2_PLACEMENT_3D('',#1415,#1146,#1147);
#1023=AXIS2_PLACEMENT_3D('',#1418,#1150,#1151);
#1024=AXIS2_PLACEMENT_3D('',#1419,#1152,#1153);
#1025=AXIS2_PLACEMENT_3D('',#1423,#1156,#1157);
#1026=AXIS2_PLACEMENT_3D('',#1433,#1163,#1164);
#1027=AXIS2_PLACEMENT_3D('',#1437,#1167,#1168);
#1028=AXIS2_PLACEMENT_3D('',#1440,#1169,#1170);
#1029=AXIS2_PLACEMENT_3D('',#1444,#1172,#1173);
#1030=AXIS2_PLACEMENT_3D('',#1446,#1175,#1176);
#1031=AXIS2_PLACEMENT_3D('',#1450,#1178,#1179);
#1032=AXIS2_PLACEMENT_3D('',#1456,#1183,#1184);
#1033=AXIS2_PLACEMENT_3D('',#1460,#1187,#1188);
#1034=AXIS2_PLACEMENT_3D('',#1462,#1189,#1190);
#1035=AXIS2_PLACEMENT_3D('',#1464,#1192,#1193);
#1036=AXIS2_PLACEMENT_3D('',#1467,#1194,#1195);
#1037=AXIS2_PLACEMENT_3D('',#1471,#1197,#1198);
#1038=AXIS2_PLACEMENT_3D('',#1473,#1200,#1201);
#1039=AXIS2_PLACEMENT_3D('',#1477,#1203,#1204);
#1040=AXIS2_PLACEMENT_3D('',#1483,#1208,#1209);
#1041=AXIS2_PLACEMENT_3D('',#1487,#1212,#1213);
#1042=AXIS2_PLACEMENT_3D('',#1489,#1214,#1215);
#1043=AXIS2_PLACEMENT_3D('',#1491,#1217,#1218);
#1044=AXIS2_PLACEMENT_3D('',#1500,#1223,#1224);
#1045=AXIS2_PLACEMENT_3D('',#1506,#1228,#1229);
#1046=AXIS2_PLACEMENT_3D('',#1681,#1233,#1234);
#1047=AXIS2_PLACEMENT_3D('',#1697,#1243,#1244);
#1048=AXIS2_PLACEMENT_3D('',#1703,#1248,#1249);
#1049=AXIS2_PLACEMENT_3D('',#1708,#1253,#1254);
#1050=AXIS2_PLACEMENT_3D('',#1713,#1258,#1259);
#1051=AXIS2_PLACEMENT_3D('',#1715,#1261,#1262);
#1052=AXIS2_PLACEMENT_3D('',#1719,#1265,#1266);
#1053=AXIS2_PLACEMENT_3D('',#1728,#1271,#1272);
#1054=AXIS2_PLACEMENT_3D('',#1730,#1273,#1274);
#1055=AXIS2_PLACEMENT_3D('',#1732,#1275,#1276);
#1056=AXIS2_PLACEMENT_3D('',#1734,#1278,#1279);
#1057=AXIS2_PLACEMENT_3D('',#1740,#1283,#1284);
#1058=AXIS2_PLACEMENT_3D('',#1741,#1285,#1286);
#1059=AXIS2_PLACEMENT_3D('',#1742,#1287,#1288);
#1060=AXIS2_PLACEMENT_3D('',#1743,#1289,#1290);
#1061=AXIS2_PLACEMENT_3D('',#1752,#1295,#1296);
#1062=AXIS2_PLACEMENT_3D('',#1754,#1297,#1298);
#1063=AXIS2_PLACEMENT_3D('',#1756,#1299,#1300);
#1064=AXIS2_PLACEMENT_3D('',#1758,#1302,#1303);
#1065=AXIS2_PLACEMENT_3D('',#1764,#1307,#1308);
#1066=AXIS2_PLACEMENT_3D('',#1767,#1311,#1312);
#1067=AXIS2_PLACEMENT_3D('',#1771,#1315,#1316);
#1068=AXIS2_PLACEMENT_3D('',#1773,#1318,#1319);
#1069=AXIS2_PLACEMENT_3D('',#1775,#1320,#1321);
#1070=AXIS2_PLACEMENT_3D('',#1777,#1322,#1323);
#1071=AXIS2_PLACEMENT_3D('',#1779,#1325,#1326);
#1072=AXIS2_PLACEMENT_3D('',#1782,#1329,#1330);
#1073=AXIS2_PLACEMENT_3D('',#1786,#1333,#1334);
#1074=AXIS2_PLACEMENT_3D('',#1789,#1337,#1338);
#1075=AXIS2_PLACEMENT_3D('',#1790,#1339,#1340);
#1076=DIRECTION('axis',(0.,0.,1.));
#1077=DIRECTION('refdir',(1.,0.,0.));
#1078=DIRECTION('center_axis',(0.,0.,-1.));
#1079=DIRECTION('ref_axis',(-0.707106781186548,0.707106781186548,0.));
#1080=DIRECTION('',(0.,0.,-1.));
#1081=DIRECTION('center_axis',(0.,0.,-1.));
#1082=DIRECTION('ref_axis',(-0.707106781186548,0.707106781186548,0.));
#1083=DIRECTION('',(0.,0.,-1.));
#1084=DIRECTION('center_axis',(0.,0.,1.));
#1085=DIRECTION('ref_axis',(-0.707106781186548,0.707106781186548,0.));
#1086=DIRECTION('center_axis',(0.,0.,1.));
#1087=DIRECTION('ref_axis',(1.,0.,0.));
#1088=DIRECTION('',(0.,1.,0.));
#1089=DIRECTION('',(1.,0.,0.));
#1090=DIRECTION('center_axis',(0.,0.,-1.));
#1091=DIRECTION('ref_axis',(0.707106781186548,0.707106781186548,0.));
#1092=DIRECTION('',(1.,0.,0.));
#1093=DIRECTION('center_axis',(0.,1.,0.));
#1094=DIRECTION('ref_axis',(1.,0.,0.));
#1095=DIRECTION('',(0.,0.,1.));
#1096=DIRECTION('',(1.,0.,0.));
#1097=DIRECTION('center_axis',(0.,0.,-1.));
#1098=DIRECTION('ref_axis',(-0.707106781186551,-0.707106781186544,0.));
#1099=DIRECTION('',(0.,0.,1.));
#1100=DIRECTION('center_axis',(0.,0.,1.));
#1101=DIRECTION('ref_axis',(-0.707106781186551,-0.707106781186544,0.));
#1102=DIRECTION('',(0.,0.,1.));
#1103=DIRECTION('center_axis',(0.,0.,-1.));
#1104=DIRECTION('ref_axis',(-0.707106781186551,-0.707106781186544,0.));
#1105=DIRECTION('center_axis',(0.,-1.,0.));
#1106=DIRECTION('ref_axis',(-1.,0.,0.));
#1107=DIRECTION('',(-1.,0.,0.));
#1108=DIRECTION('',(0.,0.,-1.));
#1109=DIRECTION('',(-1.,0.,0.));
#1110=DIRECTION('center_axis',(0.,0.,-1.));
#1111=DIRECTION('ref_axis',(0.707106781186548,0.707106781186548,0.));
#1112=DIRECTION('center_axis',(0.,0.,1.));
#1113=DIRECTION('ref_axis',(0.707106781186548,0.707106781186548,0.));
#1114=DIRECTION('',(0.,0.,-1.));
#1115=DIRECTION('center_axis',(0.,0.,-1.));
#1116=DIRECTION('ref_axis',(0.707106781186548,0.707106781186548,0.));
#1117=DIRECTION('',(0.,0.,1.));
#1118=DIRECTION('center_axis',(0.,0.,-1.));
#1119=DIRECTION('ref_axis',(0.707106781186548,0.707106781186548,0.));
#1120=DIRECTION('',(0.,0.,-1.));
#1121=DIRECTION('center_axis',(1.,0.,0.));
#1122=DIRECTION('ref_axis',(0.,-1.,0.));
#1123=DIRECTION('',(0.,-1.,0.));
#1124=DIRECTION('',(0.,0.,-1.));
#1125=DIRECTION('',(0.,-1.,0.));
#1126=DIRECTION('center_axis',(0.,0.,-1.));
#1127=DIRECTION('ref_axis',(-1.,0.,0.));
#1128=DIRECTION('',(1.,0.,0.));
#1129=DIRECTION('',(0.,1.,0.));
#1130=DIRECTION('',(-1.,0.,0.));
#1131=DIRECTION('center_axis',(0.,0.,-1.));
#1132=DIRECTION('ref_axis',(0.707106781186548,-0.707106781186548,0.));
#1133=DIRECTION('center_axis',(0.,1.,0.));
#1134=DIRECTION('ref_axis',(1.,0.,0.));
#1135=DIRECTION('',(0.,0.,1.));
#1136=DIRECTION('center_axis',(0.,0.,-1.));
#1137=DIRECTION('ref_axis',(0.707106781186548,-0.707106781186548,0.));
#1138=DIRECTION('center_axis',(0.,0.,1.));
#1139=DIRECTION('ref_axis',(0.707106781186548,-0.707106781186548,0.));
#1140=DIRECTION('',(0.,0.,1.));
#1141=DIRECTION('center_axis',(0.,0.,-1.));
#1142=DIRECTION('ref_axis',(0.707106781186548,-0.707106781186548,0.));
#1143=DIRECTION('',(0.,0.,1.));
#1144=DIRECTION('center_axis',(0.,0.,-1.));
#1145=DIRECTION('ref_axis',(0.707106781186548,-0.707106781186548,0.));
#1146=DIRECTION('center_axis',(1.,0.,0.));
#1147=DIRECTION('ref_axis',(0.,-1.,0.));
#1148=DIRECTION('',(0.,-1.,0.));
#1149=DIRECTION('',(0.,-1.,0.));
#1150=DIRECTION('center_axis',(0.,0.,1.));
#1151=DIRECTION('ref_axis',(1.,0.,0.));
#1152=DIRECTION('center_axis',(0.,-1.,0.));
#1153=DIRECTION('ref_axis',(-1.,0.,0.));
#1154=DIRECTION('',(0.,0.,-1.));
#1155=DIRECTION('',(-1.,0.,0.));
#1156=DIRECTION('center_axis',(0.,2.30792114210336E-17,-1.));
#1157=DIRECTION('ref_axis',(0.,1.,2.30792114210336E-17));
#1158=DIRECTION('',(0.,1.,2.30792114210336E-17));
#1159=DIRECTION('',(1.,0.,0.));
#1160=DIRECTION('',(0.,1.,2.30792114210336E-17));
#1161=DIRECTION('',(1.,0.,0.));
#1162=DIRECTION('',(0.,1.,2.30792114210336E-17));
#1163=DIRECTION('center_axis',(1.,0.,0.));
#1164=DIRECTION('ref_axis',(0.,1.,0.));
#1165=DIRECTION('',(0.,-1.,0.));
#1166=DIRECTION('',(0.,0.,-1.));
#1167=DIRECTION('center_axis',(0.,1.,0.));
#1168=DIRECTION('ref_axis',(0.707106781186549,0.,0.707106781186546));
#1169=DIRECTION('center_axis',(0.,-1.,-1.70803542250024E-16));
#1170=DIRECTION('ref_axis',(0.707106781186549,0.,0.707106781186546));
#1171=DIRECTION('',(0.,-1.,0.));
#1172=DIRECTION('center_axis',(0.,1.,0.));
#1173=DIRECTION('ref_axis',(0.707106781186549,0.,0.707106781186546));
#1174=DIRECTION('',(0.,1.,0.));
#1175=DIRECTION('center_axis',(0.,-1.,0.));
#1176=DIRECTION('ref_axis',(0.,0.,-1.));
#1177=DIRECTION('',(1.,0.,0.));
#1178=DIRECTION('center_axis',(0.,1.,0.));
#1179=DIRECTION('ref_axis',(-0.707106781186546,0.,0.707106781186549));
#1180=DIRECTION('',(0.,0.,1.));
#1181=DIRECTION('',(1.,0.,0.));
#1182=DIRECTION('',(0.,0.,1.));
#1183=DIRECTION('center_axis',(0.,0.,1.));
#1184=DIRECTION('ref_axis',(0.,-1.,0.));
#1185=DIRECTION('',(1.,0.,0.));
#1186=DIRECTION('',(0.,1.,0.));
#1187=DIRECTION('center_axis',(0.,1.,0.));
#1188=DIRECTION('ref_axis',(-0.707106781186546,0.,0.707106781186549));
#1189=DIRECTION('center_axis',(0.,-1.,-1.70803542250024E-16));
#1190=DIRECTION('ref_axis',(-0.707106781186546,0.,0.707106781186549));
#1191=DIRECTION('',(0.,-1.,0.));
#1192=DIRECTION('center_axis',(0.,-1.,0.));
#1193=DIRECTION('ref_axis',(-0.707106781186551,0.,0.707106781186544));
#1194=DIRECTION('center_axis',(0.,1.,0.));
#1195=DIRECTION('ref_axis',(-0.707106781186551,0.,0.707106781186544));
#1196=DIRECTION('',(0.,1.,0.));
#1197=DIRECTION('center_axis',(0.,-1.,-1.70803542250024E-16));
#1198=DIRECTION('ref_axis',(-0.707106781186551,0.,0.707106781186544));
#1199=DIRECTION('',(0.,-1.,0.));
#1200=DIRECTION('center_axis',(0.,1.,1.70803542250024E-16));
#1201=DIRECTION('ref_axis',(0.,-1.70803542250024E-16,1.));
#1202=DIRECTION('',(1.,0.,0.));
#1203=DIRECTION('center_axis',(0.,-1.,-1.70803542250024E-16));
#1204=DIRECTION('ref_axis',(0.707106781186548,0.,0.707106781186548));
#1205=DIRECTION('',(0.,-1.70803542250024E-16,1.));
#1206=DIRECTION('',(1.,0.,0.));
#1207=DIRECTION('',(0.,-1.70803542250024E-16,1.));
#1208=DIRECTION('center_axis',(0.,0.,1.));
#1209=DIRECTION('ref_axis',(0.,-1.,0.));
#1210=DIRECTION('',(1.,0.,0.));
#1211=DIRECTION('',(0.,-1.,0.));
#1212=DIRECTION('center_axis',(0.,-1.,0.));
#1213=DIRECTION('ref_axis',(0.707106781186548,0.,0.707106781186548));
#1214=DIRECTION('center_axis',(0.,1.,0.));
#1215=DIRECTION('ref_axis',(0.707106781186548,0.,0.707106781186548));
#1216=DIRECTION('',(0.,1.,0.));
#1217=DIRECTION('center_axis',(-1.,0.,0.));
#1218=DIRECTION('ref_axis',(0.,0.499999999999999,0.866025403784439));
#1219=DIRECTION('',(0.,-0.5,-0.866025403784439));
#1220=DIRECTION('',(0.,0.866025403784439,-0.5));
#1221=DIRECTION('',(0.,0.5,0.866025403784439));
#1222=DIRECTION('',(0.,0.866025403784439,-0.5));
#1223=DIRECTION('center_axis',(0.,-0.5,-0.866025403784439));
#1224=DIRECTION('ref_axis',(-1.,2.34014162828354E-19,-1.35108139903135E-19));
#1225=DIRECTION('',(1.,0.,0.));
#1226=DIRECTION('',(1.,0.,0.));
#1227=DIRECTION('',(0.,0.866025403784439,-0.5));
#1228=DIRECTION('center_axis',(1.,0.,0.));
#1229=DIRECTION('ref_axis',(0.,-0.5,-0.866025403784439));
#1230=DIRECTION('',(0.,0.5,0.866025403784439));
#1231=DIRECTION('',(0.,-0.5,-0.866025403784439));
#1232=DIRECTION('',(0.,0.866025403784439,-0.5));
#1233=DIRECTION('center_axis',(0.,-0.866025403784439,0.5));
#1234=DIRECTION('ref_axis',(0.,-0.5,-0.866025403784439));
#1235=DIRECTION('',(1.,0.,0.));
#1236=DIRECTION('',(0.,-0.5,-0.866025403784439));
#1237=DIRECTION('',(1.,0.,0.));
#1238=DIRECTION('',(0.,-0.5,-0.866025403784439));
#1239=DIRECTION('',(1.,0.,0.));
#1240=DIRECTION('',(0.,-0.5,-0.866025403784439));
#1241=DIRECTION('',(1.,0.,0.));
#1242=DIRECTION('',(0.,0.5,0.866025403784439));
#1243=DIRECTION('center_axis',(0.,1.,0.));
#1244=DIRECTION('ref_axis',(0.,0.,1.));
#1245=DIRECTION('',(0.,4.44089209850063E-16,1.));
#1246=DIRECTION('',(-1.,0.,0.));
#1247=DIRECTION('',(0.,0.,-1.));
#1248=DIRECTION('center_axis',(1.,0.,0.));
#1249=DIRECTION('ref_axis',(0.,0.,-1.));
#1250=DIRECTION('',(0.,-1.,0.));
#1251=DIRECTION('',(0.,1.,0.));
#1252=DIRECTION('',(0.,0.,-1.));
#1253=DIRECTION('center_axis',(-1.,0.,0.));
#1254=DIRECTION('ref_axis',(0.,4.44089209850063E-16,1.));
#1255=DIRECTION('',(0.,-1.,0.));
#1256=DIRECTION('',(0.,1.,0.));
#1257=DIRECTION('',(0.,1.70803542250024E-16,-1.));
#1258=DIRECTION('center_axis',(0.,0.,1.));
#1259=DIRECTION('ref_axis',(0.,-1.,0.));
#1260=DIRECTION('',(0.,-1.,0.));
#1261=DIRECTION('center_axis',(0.,-1.,0.));
#1262=DIRECTION('ref_axis',(0.,0.,-1.));
#1263=DIRECTION('',(1.,0.,0.));
#1264=DIRECTION('',(0.,0.,-1.));
#1265=DIRECTION('center_axis',(-1.,0.,0.));
#1266=DIRECTION('ref_axis',(0.,0.342020143325669,-0.939692620785909));
#1267=DIRECTION('',(0.,-0.342020143325669,0.939692620785908));
#1268=DIRECTION('',(0.,-0.939692620785909,-0.342020143325668));
#1269=DIRECTION('',(0.,0.342020143325669,-0.939692620785909));
#1270=DIRECTION('',(0.,-0.939692620785909,-0.342020143325668));
#1271=DIRECTION('center_axis',(0.,-0.939692620785909,-0.342020143325668));
#1272=DIRECTION('ref_axis',(-1.,0.,0.));
#1273=DIRECTION('center_axis',(0.,0.939692620785908,0.342020143325669));
#1274=DIRECTION('ref_axis',(-1.,0.,0.));
#1275=DIRECTION('center_axis',(0.,-0.939692620785909,-0.342020143325669));
#1276=DIRECTION('ref_axis',(-1.,0.,0.));
#1277=DIRECTION('',(0.,-0.939692620785909,-0.342020143325668));
#1278=DIRECTION('center_axis',(1.,0.,0.));
#1279=DIRECTION('ref_axis',(0.,-0.342020143325669,0.939692620785909));
#1280=DIRECTION('',(0.,0.342020143325669,-0.939692620785908));
#1281=DIRECTION('',(0.,-0.342020143325669,0.939692620785909));
#1282=DIRECTION('',(0.,-0.939692620785909,-0.342020143325668));
#1283=DIRECTION('center_axis',(0.,-0.939692620785909,-0.342020143325668));
#1284=DIRECTION('ref_axis',(1.,0.,0.));
#1285=DIRECTION('center_axis',(0.,0.939692620785908,0.342020143325669));
#1286=DIRECTION('ref_axis',(1.,0.,0.));
#1287=DIRECTION('center_axis',(0.,-0.939692620785909,-0.342020143325669));
#1288=DIRECTION('ref_axis',(1.,0.,0.));
#1289=DIRECTION('center_axis',(0.,-0.939692620785908,-0.342020143325669));
#1290=DIRECTION('ref_axis',(0.,0.342020143325669,-0.939692620785908));
#1291=DIRECTION('',(0.,-0.342020143325669,0.939692620785908));
#1292=DIRECTION('',(1.,0.,0.));
#1293=DIRECTION('',(0.,0.342020143325669,-0.939692620785908));
#1294=DIRECTION('',(1.,0.,0.));
#1295=DIRECTION('center_axis',(1.,0.,0.));
#1296=DIRECTION('ref_axis',(0.,0.939692620785909,0.342020143325668));
#1297=DIRECTION('center_axis',(1.,0.,0.));
#1298=DIRECTION('ref_axis',(0.,0.939692620785909,0.342020143325668));
#1299=DIRECTION('center_axis',(-1.,0.,0.));
#1300=DIRECTION('ref_axis',(0.,0.939692620785909,0.342020143325668));
#1301=DIRECTION('',(1.,0.,0.));
#1302=DIRECTION('center_axis',(0.,0.866025403784439,-0.5));
#1303=DIRECTION('ref_axis',(0.,0.5,0.866025403784439));
#1304=DIRECTION('',(0.,-0.5,-0.866025403784439));
#1305=DIRECTION('',(0.,0.5,0.866025403784439));
#1306=DIRECTION('',(1.,0.,0.));
#1307=DIRECTION('center_axis',(0.,0.,-1.));
#1308=DIRECTION('ref_axis',(0.,1.,0.));
#1309=DIRECTION('',(0.,-1.,0.));
#1310=DIRECTION('',(0.,1.,0.));
#1311=DIRECTION('center_axis',(0.,1.,1.70803542250024E-16));
#1312=DIRECTION('ref_axis',(0.,-1.70803542250024E-16,1.));
#1313=DIRECTION('',(1.,0.,0.));
#1314=DIRECTION('',(0.,-1.70803542250024E-16,1.));
#1315=DIRECTION('center_axis',(0.,0.,1.));
#1316=DIRECTION('ref_axis',(0.,-1.,0.));
#1317=DIRECTION('',(0.,-1.,0.));
#1318=DIRECTION('center_axis',(1.,0.,0.));
#1319=DIRECTION('ref_axis',(0.,0.939692620785909,0.342020143325668));
#1320=DIRECTION('center_axis',(1.,0.,0.));
#1321=DIRECTION('ref_axis',(0.,0.939692620785909,0.342020143325668));
#1322=DIRECTION('center_axis',(1.,0.,0.));
#1323=DIRECTION('ref_axis',(0.,0.939692620785909,0.342020143325668));
#1324=DIRECTION('',(1.,0.,0.));
#1325=DIRECTION('center_axis',(0.,0.939692620785909,0.342020143325669));
#1326=DIRECTION('ref_axis',(0.,-0.342020143325669,0.939692620785909));
#1327=DIRECTION('',(0.,-0.342020143325669,0.939692620785909));
#1328=DIRECTION('',(0.,-0.342020143325669,0.939692620785909));
#1329=DIRECTION('center_axis',(0.,-1.,0.));
#1330=DIRECTION('ref_axis',(0.,0.,-1.));
#1331=DIRECTION('',(0.,0.,-1.));
#1332=DIRECTION('',(1.,0.,0.));
#1333=DIRECTION('center_axis',(0.,0.,1.));
#1334=DIRECTION('ref_axis',(0.,-1.,0.));
#1335=DIRECTION('',(0.,1.,0.));
#1336=DIRECTION('',(0.,-1.,0.));
#1337=DIRECTION('center_axis',(1.,0.,0.));
#1338=DIRECTION('ref_axis',(0.,1.,0.));
#1339=DIRECTION('center_axis',(1.,0.,0.));
#1340=DIRECTION('ref_axis',(0.,1.,0.));
#1341=CARTESIAN_POINT('',(0.,0.,0.));
#1342=CARTESIAN_POINT('Origin',(7.65000011026859,9.25000014156103,0.));
#1343=CARTESIAN_POINT('',(7.5,9.45000005885954,0.));
#1344=CARTESIAN_POINT('',(7.5,9.45000005885954,-0.35));
#1345=CARTESIAN_POINT('',(7.5,9.45000005885954,0.));
#1346=CARTESIAN_POINT('',(7.65000011026859,9.50000014156103,0.));
#1347=CARTESIAN_POINT('Origin',(7.65000011026859,9.25000014156103,0.));
#1348=CARTESIAN_POINT('',(7.65000011026859,9.50000014156103,-0.35));
#1349=CARTESIAN_POINT('',(7.65000011026859,9.50000014156103,0.));
#1350=CARTESIAN_POINT('Origin',(7.65000011026859,9.25000014156103,-0.35));
#1351=CARTESIAN_POINT('Origin',(9.65000014379621,7.25000010803342,0.));
#1352=CARTESIAN_POINT('',(7.50000011175871,9.40000014007092,0.));
#1353=CARTESIAN_POINT('',(7.5,6.00730421703663,0.));
#1354=CARTESIAN_POINT('',(11.7000001793106,9.40000014007092,0.));
#1355=CARTESIAN_POINT('',(8.57500012777746,9.40000014007092,0.));
#1356=CARTESIAN_POINT('',(11.4000001773238,9.50000014156103,0.));
#1357=CARTESIAN_POINT('Origin',(11.4000001773238,9.00000014156103,0.));
#1358=CARTESIAN_POINT('',(7.40000011026859,9.50000014156103,0.));
#1359=CARTESIAN_POINT('Origin',(7.40000011026859,9.50000014156103,0.));
#1360=CARTESIAN_POINT('',(11.4000001773238,9.50000014156103,-0.35));
#1361=CARTESIAN_POINT('',(11.4000001773238,9.50000014156103,0.));
#1362=CARTESIAN_POINT('',(7.40000011026859,9.50000014156103,-0.35));
#1363=CARTESIAN_POINT('Origin',(7.60000011026859,5.20000007450581,0.));
#1364=CARTESIAN_POINT('',(7.5,5.02679505741257,-0.35));
#1365=CARTESIAN_POINT('',(7.5,5.02679505741257,0.));
#1366=CARTESIAN_POINT('',(7.5,5.02679505741257,0.));
#1367=CARTESIAN_POINT('',(7.60000011026859,5.00000007450581,-0.35));
#1368=CARTESIAN_POINT('Origin',(7.60000011026859,5.20000007450581,-0.35));
#1369=CARTESIAN_POINT('',(7.60000011026859,5.00000007450581,0.));
#1370=CARTESIAN_POINT('',(7.60000011026859,5.00000007450581,0.));
#1371=CARTESIAN_POINT('Origin',(7.60000011026859,5.20000007450581,0.));
#1372=CARTESIAN_POINT('Origin',(11.9000001773238,5.00000007450581,0.));
#1373=CARTESIAN_POINT('',(11.4000001773238,5.00000007450581,-0.35));
#1374=CARTESIAN_POINT('',(11.9000001773238,5.00000007450581,-0.35));
#1375=CARTESIAN_POINT('',(11.4000001773238,5.00000007450581,0.));
#1376=CARTESIAN_POINT('',(11.4000001773238,5.00000007450581,0.));
#1377=CARTESIAN_POINT('',(11.9000001773238,5.00000007450581,0.));
#1378=CARTESIAN_POINT('Origin',(11.4000001773238,9.00000014156103,0.));
#1379=CARTESIAN_POINT('',(11.9000001773238,9.00000014156103,-0.35));
#1380=CARTESIAN_POINT('Origin',(11.4000001773238,9.00000014156103,-0.35));
#1381=CARTESIAN_POINT('',(11.7000001793106,9.40000014007092,-0.2));
#1382=CARTESIAN_POINT('',(11.7000001793106,9.40000014007092,0.));
#1383=CARTESIAN_POINT('',(11.8000001758337,9.30000014354785,-0.2));
#1384=CARTESIAN_POINT('Origin',(11.4000001773238,9.00000014156103,-0.2));
#1385=CARTESIAN_POINT('',(11.8000001758337,9.30000014354785,0.));
#1386=CARTESIAN_POINT('',(11.8000001758337,9.30000014354785,0.));
#1387=CARTESIAN_POINT('',(11.9000001773238,9.00000014156103,0.));
#1388=CARTESIAN_POINT('Origin',(11.4000001773238,9.00000014156103,0.));
#1389=CARTESIAN_POINT('',(11.9000001773238,9.00000014156103,0.));
#1390=CARTESIAN_POINT('Origin',(11.8000001758337,9.40000014007092,0.));
#1391=CARTESIAN_POINT('',(11.8000001758337,5.20000007251898,-0.2));
#1392=CARTESIAN_POINT('',(11.8000001758337,9.40000014007092,-0.2));
#1393=CARTESIAN_POINT('',(11.8000001758337,5.20000007251898,0.));
#1394=CARTESIAN_POINT('',(11.8000001758337,5.20000007251898,0.));
#1395=CARTESIAN_POINT('',(11.8000001758337,8.32500012405217,0.));
#1396=CARTESIAN_POINT('Origin',(9.65000014379621,7.25000010803342,-0.2));
#1397=CARTESIAN_POINT('',(7.50000011175871,9.40000014007092,-0.2));
#1398=CARTESIAN_POINT('',(7.50000011175871,9.40000014007092,-0.2));
#1399=CARTESIAN_POINT('',(7.50000011175871,5.10000007599592,-0.2));
#1400=CARTESIAN_POINT('',(7.5,6.00730421703663,-0.2));
#1401=CARTESIAN_POINT('',(11.7000001793106,5.10000007599592,-0.2));
#1402=CARTESIAN_POINT('',(11.8000001758337,5.10000007599592,-0.2));
#1403=CARTESIAN_POINT('Origin',(11.4000001773238,5.50000007450581,-0.2));
#1404=CARTESIAN_POINT('Origin',(7.50000011175871,9.40000014007092,0.));
#1405=CARTESIAN_POINT('',(7.5,9.40000014007092,2.16134178333864));
#1406=CARTESIAN_POINT('Origin',(11.4000001773238,5.50000007450581,0.));
#1407=CARTESIAN_POINT('',(11.9000001773238,5.50000007450581,-0.35));
#1408=CARTESIAN_POINT('Origin',(11.4000001773238,5.50000007450581,-0.35));
#1409=CARTESIAN_POINT('',(11.9000001773238,5.50000007450581,0.));
#1410=CARTESIAN_POINT('',(11.9000001773238,5.50000007450581,0.));
#1411=CARTESIAN_POINT('Origin',(11.4000001773238,5.50000007450581,0.));
#1412=CARTESIAN_POINT('',(11.7000001793106,5.10000007599592,0.));
#1413=CARTESIAN_POINT('',(11.7000001793106,5.10000007599592,0.));
#1414=CARTESIAN_POINT('Origin',(11.4000001773238,5.50000007450581,0.));
#1415=CARTESIAN_POINT('Origin',(11.9000001773238,9.50000014156103,0.));
#1416=CARTESIAN_POINT('',(11.9000001773238,9.50000014156103,0.));
#1417=CARTESIAN_POINT('',(11.9000001773238,9.50000014156103,-0.35));
#1418=CARTESIAN_POINT('Origin',(9.65000014379621,7.25000010803342,0.));
#1419=CARTESIAN_POINT('Origin',(11.8000001758337,5.10000007599592,0.));
#1420=CARTESIAN_POINT('',(7.50000011175871,5.10000007599592,0.));
#1421=CARTESIAN_POINT('',(7.5,5.10000007599592,2.16134178333864));
#1422=CARTESIAN_POINT('',(10.725000159815,5.10000007599592,0.));
#1423=CARTESIAN_POINT('Origin',(0.,0.,-0.35));
#1424=CARTESIAN_POINT('',(7.5,0.,-0.35));
#1425=CARTESIAN_POINT('',(7.5,0.,-0.35));
#1426=CARTESIAN_POINT('',(0.,0.,-0.35));
#1427=CARTESIAN_POINT('',(0.,0.,-0.35));
#1428=CARTESIAN_POINT('',(0.,9.62097884863898,-0.35));
#1429=CARTESIAN_POINT('',(0.,0.,-0.35));
#1430=CARTESIAN_POINT('',(7.5,9.62097884863898,-0.35));
#1431=CARTESIAN_POINT('',(0.,9.62097884863898,-0.35));
#1432=CARTESIAN_POINT('',(7.5,0.,-0.35));
#1433=CARTESIAN_POINT('Origin',(7.5,4.76460832603984,4.32268356667728));
#1434=CARTESIAN_POINT('',(7.5,0.,0.));
#1435=CARTESIAN_POINT('',(7.5,0.,0.));
#1436=CARTESIAN_POINT('',(7.5,0.,0.));
#1437=CARTESIAN_POINT('Origin',(2.74753008718585,0.0832378034407052,4.61524011443236));
#1438=CARTESIAN_POINT('',(2.94753008718585,0.258237803440705,4.61524011443236));
#1439=CARTESIAN_POINT('',(2.74753008718585,0.258237803440705,4.81524011443236));
#1440=CARTESIAN_POINT('Origin',(2.74753008718585,0.258237803440705,4.61524011443236));
#1441=CARTESIAN_POINT('',(2.74753008718585,-0.0917621965592947,4.81524011443236));
#1442=CARTESIAN_POINT('',(2.74753008718585,0.0832378034407052,4.81524011443236));
#1443=CARTESIAN_POINT('',(2.94753008718585,-0.0917621965592947,4.61524011443236));
#1444=CARTESIAN_POINT('Origin',(2.74753008718585,-0.0917621965592947,4.61524011443236));
#1445=CARTESIAN_POINT('',(2.94753008718585,0.0832378034407052,4.61524011443236));
#1446=CARTESIAN_POINT('Origin',(0.,-0.0917621965592947,4.81524011443236));
#1447=CARTESIAN_POINT('',(0.2,-0.0917621965592947,4.81524011443236));
#1448=CARTESIAN_POINT('',(0.,-0.0917621965592947,4.81524011443236));
#1449=CARTESIAN_POINT('',(0.,-0.0917621965592947,4.61524011443236));
#1450=CARTESIAN_POINT('Origin',(0.2,-0.0917621965592947,4.61524011443236));
#1451=CARTESIAN_POINT('',(0.,-0.0917621965592947,3.81524011443236));
#1452=CARTESIAN_POINT('',(0.,-0.0917621965592947,3.81524011443236));
#1453=CARTESIAN_POINT('',(2.94753008718585,-0.0917621965592947,3.81524011443236));
#1454=CARTESIAN_POINT('',(0.,-0.0917621965592947,3.81524011443236));
#1455=CARTESIAN_POINT('',(2.94753008718585,-0.0917621965592947,4.31524011443236));
#1456=CARTESIAN_POINT('Origin',(0.,0.258237803440705,4.81524011443236));
#1457=CARTESIAN_POINT('',(0.2,0.258237803440705,4.81524011443236));
#1458=CARTESIAN_POINT('',(0.,0.258237803440705,4.81524011443236));
#1459=CARTESIAN_POINT('',(0.2,2.51142306474027,4.81524011443236));
#1460=CARTESIAN_POINT('Origin',(0.2,2.51142306474027,4.61524011443236));
#1461=CARTESIAN_POINT('',(0.,0.258237803440705,4.61524011443236));
#1462=CARTESIAN_POINT('Origin',(0.2,0.258237803440705,4.61524011443236));
#1463=CARTESIAN_POINT('',(0.,2.51142306474027,4.61524011443236));
#1464=CARTESIAN_POINT('Origin',(4.75246991281415,0.0832378034407055,4.61524011443236));
#1465=CARTESIAN_POINT('',(4.55246991281415,-0.0917621965592947,4.61524011443236));
#1466=CARTESIAN_POINT('',(4.75246991281415,-0.0917621965592947,4.81524011443236));
#1467=CARTESIAN_POINT('Origin',(4.75246991281415,-0.0917621965592947,4.61524011443236));
#1468=CARTESIAN_POINT('',(4.75246991281415,0.258237803440705,4.81524011443236));
#1469=CARTESIAN_POINT('',(4.75246991281415,0.0832378034407055,4.81524011443236));
#1470=CARTESIAN_POINT('',(4.55246991281415,0.258237803440705,4.61524011443236));
#1471=CARTESIAN_POINT('Origin',(4.75246991281415,0.258237803440705,4.61524011443236));
#1472=CARTESIAN_POINT('',(4.55246991281415,0.0832378034407055,4.61524011443236));
#1473=CARTESIAN_POINT('Origin',(0.,0.258237803440705,4.16524011443236));
#1474=CARTESIAN_POINT('',(7.3,0.258237803440705,4.81524011443236));
#1475=CARTESIAN_POINT('',(0.,0.258237803440705,4.81524011443236));
#1476=CARTESIAN_POINT('',(7.5,0.258237803440705,4.61524011443236));
#1477=CARTESIAN_POINT('Origin',(7.3,0.258237803440705,4.61524011443236));
#1478=CARTESIAN_POINT('',(7.5,0.258237803440705,4.16524011443236));
#1479=CARTESIAN_POINT('',(7.5,0.258237803440705,4.16524011443236));
#1480=CARTESIAN_POINT('',(4.55246991281415,0.258237803440705,4.16524011443236));
#1481=CARTESIAN_POINT('',(0.,0.258237803440705,4.16524011443236));
#1482=CARTESIAN_POINT('',(4.55246991281415,0.258237803440705,4.49024011443236));
#1483=CARTESIAN_POINT('Origin',(0.,0.258237803440705,4.81524011443236));
#1484=CARTESIAN_POINT('',(7.3,-0.0917621965592947,4.81524011443236));
#1485=CARTESIAN_POINT('',(0.,-0.0917621965592947,4.81524011443236));
#1486=CARTESIAN_POINT('',(7.3,2.51142306474027,4.81524011443236));
#1487=CARTESIAN_POINT('Origin',(7.3,2.51142306474027,4.61524011443236));
#1488=CARTESIAN_POINT('',(7.5,-0.0917621965592947,4.61524011443236));
#1489=CARTESIAN_POINT('Origin',(7.3,-0.0917621965592947,4.61524011443236));
#1490=CARTESIAN_POINT('',(7.5,2.51142306474027,4.61524011443236));
#1491=CARTESIAN_POINT('Origin',(2.94753008718585,1.70823780344071,4.16882995291858));
#1492=CARTESIAN_POINT('',(2.94753008718585,3.40927410054889,6.41511124502879));
#1493=CARTESIAN_POINT('',(2.94753008718585,2.01134669476526,3.99382995291859));
#1494=CARTESIAN_POINT('',(2.94753008718585,1.95979224910298,3.90453503367547));
#1495=CARTESIAN_POINT('',(2.94753008718585,3.10616520922433,6.59011124502879));
#1496=CARTESIAN_POINT('',(2.94753008718585,3.10616520922433,6.59011124502879));
#1497=CARTESIAN_POINT('',(2.94753008718585,1.70823780344071,4.16882995291858));
#1498=CARTESIAN_POINT('',(2.94753008718585,2.90668335777843,6.24459854313657));
#1499=CARTESIAN_POINT('',(2.94753008718585,1.70823780344071,4.16882995291859));
#1500=CARTESIAN_POINT('Origin',(4.54753008718585,1.70823780344071,4.16882995291859));
#1501=CARTESIAN_POINT('',(4.54753008718585,2.01134669476526,3.99382995291859));
#1502=CARTESIAN_POINT('',(2.27376504359293,2.01134669476526,3.99382995291859));
#1503=CARTESIAN_POINT('',(4.54753008718585,1.7082378034407,4.16882995291859));
#1504=CARTESIAN_POINT('',(1.875,1.70823780344071,4.16882995291858));
#1505=CARTESIAN_POINT('',(4.54753008718585,1.7082378034407,4.16882995291859));
#1506=CARTESIAN_POINT('Origin',(4.54753008718585,3.10616520922433,6.59011124502879));
#1507=CARTESIAN_POINT('',(4.54753008718585,3.40927410054889,6.41511124502879));
#1508=CARTESIAN_POINT('',(4.54753008718585,2.6587559519948,5.11517567973057));
#1509=CARTESIAN_POINT('',(4.54753008718585,3.10616520922433,6.59011124502879));
#1510=CARTESIAN_POINT('',(4.54753008718585,3.60564706067024,7.45523918919167));
#1511=CARTESIAN_POINT('',(4.54753008718585,3.10616520922433,6.59011124502879));
#1512=CARTESIAN_POINT('Ctrl Pts',(2.94753008718585,3.10616520922433,6.59011124502879));
#1513=CARTESIAN_POINT('Ctrl Pts',(2.94753008718585,3.53917791111655,6.34011124502879));
#1514=CARTESIAN_POINT('Ctrl Pts',(2.95205227304835,3.12219482617217,6.6178753560083));
#1515=CARTESIAN_POINT('Ctrl Pts',(2.95205227304835,3.55520752806439,6.3678753560083));
#1516=CARTESIAN_POINT('Ctrl Pts',(2.96212123911081,3.15360816012235,6.67228484644515));
#1517=CARTESIAN_POINT('Ctrl Pts',(2.96212123911081,3.58662086201457,6.42228484644515));
#1518=CARTESIAN_POINT('Ctrl Pts',(2.980298468155,3.19879046267199,6.75054289006407));
#1519=CARTESIAN_POINT('Ctrl Pts',(2.980298468155,3.63180316456421,6.50054289006407));
#1520=CARTESIAN_POINT('Ctrl Pts',(3.01069839875676,3.25514801368708,6.84815703181236));
#1521=CARTESIAN_POINT('Ctrl Pts',(3.01069839875676,3.6881607155793,6.59815703181236));
#1522=CARTESIAN_POINT('Ctrl Pts',(3.05900913190072,3.31905106816674,6.95884036892998));
#1523=CARTESIAN_POINT('Ctrl Pts',(3.05900913190072,3.75206377005896,6.70884036892998));
#1524=CARTESIAN_POINT('Ctrl Pts',(3.11758129271036,3.37630912757515,7.05801423696814));
#1525=CARTESIAN_POINT('Ctrl Pts',(3.11758129271036,3.80932182946737,6.80801423696814));
#1526=CARTESIAN_POINT('Ctrl Pts',(3.18618822283808,3.42679943076382,7.14546600738048));
#1527=CARTESIAN_POINT('Ctrl Pts',(3.18618822283808,3.85981213265604,6.89546600738048));
#1528=CARTESIAN_POINT('Ctrl Pts',(3.26433223984866,3.4703910442668,7.22096889675155));
#1529=CARTESIAN_POINT('Ctrl Pts',(3.26433223984866,3.90340374615902,6.97096889675155));
#1530=CARTESIAN_POINT('Ctrl Pts',(3.35114402799076,3.50696024961695,7.28430861841042));
#1531=CARTESIAN_POINT('Ctrl Pts',(3.35114402799076,3.93997295150917,7.03430861841042));
#1532=CARTESIAN_POINT('Ctrl Pts',(3.4452802540986,3.53640870307946,7.33531483601181));
#1533=CARTESIAN_POINT('Ctrl Pts',(3.4452802540986,3.96942140497168,7.08531483601181));
#1534=CARTESIAN_POINT('Ctrl Pts',(3.5450186484935,3.55870022176517,7.37392487895333));
#1535=CARTESIAN_POINT('Ctrl Pts',(3.5450186484935,3.99171292365739,7.12392487895333));
#1536=CARTESIAN_POINT('Ctrl Pts',(3.64834312615798,3.57390087166672,7.40025317689088));
#1537=CARTESIAN_POINT('Ctrl Pts',(3.64834312615798,4.00691357355894,7.15025317689088));
#1538=CARTESIAN_POINT('Ctrl Pts',(3.75302773014024,3.58222023926141,7.41466274425173));
#1539=CARTESIAN_POINT('Ctrl Pts',(3.75302773014024,4.01523294115363,7.16466274425173));
#1540=CARTESIAN_POINT('Ctrl Pts',(3.85671392383835,3.58406081063762,7.41785070739028));
#1541=CARTESIAN_POINT('Ctrl Pts',(3.85671392383835,4.01707351252984,7.16785070739028));
#1542=CARTESIAN_POINT('Ctrl Pts',(3.9569950561485,3.58005834271919,7.4109182295999));
#1543=CARTESIAN_POINT('Ctrl Pts',(3.9569950561485,4.01307104461141,7.1609182295999));
#1544=CARTESIAN_POINT('Ctrl Pts',(4.05161122697757,3.57090902611886,7.39507114839359));
#1545=CARTESIAN_POINT('Ctrl Pts',(4.05161122697757,4.00392172801108,7.14507114839359));
#1546=CARTESIAN_POINT('Ctrl Pts',(4.13865608087375,3.55719758162048,7.37132222987724));
#1547=CARTESIAN_POINT('Ctrl Pts',(4.13865608087375,3.9902102835127,7.12132222987724));
#1548=CARTESIAN_POINT('Ctrl Pts',(4.21675577977615,3.53924807236092,7.34023276786875));
#1549=CARTESIAN_POINT('Ctrl Pts',(4.21675577977615,3.97226077425314,7.09023276786875));
#1550=CARTESIAN_POINT('Ctrl Pts',(4.28533802093077,3.51691285733295,7.30154704064233));
#1551=CARTESIAN_POINT('Ctrl Pts',(4.28533802093077,3.94992555922517,7.05154704064233));
#1552=CARTESIAN_POINT('Ctrl Pts',(4.344581564097,3.48960435486876,7.25424732689573));
#1553=CARTESIAN_POINT('Ctrl Pts',(4.344581564097,3.92261705676098,7.00424732689573));
#1554=CARTESIAN_POINT('Ctrl Pts',(4.39508501645671,3.45654424828593,7.19698554259064));
#1555=CARTESIAN_POINT('Ctrl Pts',(4.39508501645671,3.88955695017815,6.94698554259064));
#1556=CARTESIAN_POINT('Ctrl Pts',(4.43764130870949,3.41693328215583,7.1283773367164));
#1557=CARTESIAN_POINT('Ctrl Pts',(4.43764130870949,3.84994598404804,6.8783773367164));
#1558=CARTESIAN_POINT('Ctrl Pts',(4.47293485564646,3.37019599528478,7.04742598124782));
#1559=CARTESIAN_POINT('Ctrl Pts',(4.47293485564646,3.803208697177,6.79742598124782));
#1560=CARTESIAN_POINT('Ctrl Pts',(4.5014498668353,3.31602422979604,6.95359773108563));
#1561=CARTESIAN_POINT('Ctrl Pts',(4.5014498668353,3.74903693168826,6.70359773108563));
#1562=CARTESIAN_POINT('Ctrl Pts',(4.52352355641881,3.25428005509219,6.84665368342715));
#1563=CARTESIAN_POINT('Ctrl Pts',(4.52352355641881,3.68729275698441,6.59665368342715));
#1564=CARTESIAN_POINT('Ctrl Pts',(4.53619228155016,3.19881102572481,6.75057850631632));
#1565=CARTESIAN_POINT('Ctrl Pts',(4.53619228155016,3.63182372761703,6.50057850631632));
#1566=CARTESIAN_POINT('Ctrl Pts',(4.54293233832748,3.15380752495646,6.67263015646707));
#1567=CARTESIAN_POINT('Ctrl Pts',(4.54293233832748,3.58682022684868,6.42263015646707));
#1568=CARTESIAN_POINT('Ctrl Pts',(4.54620153214411,3.12229729858936,6.61805284344126));
#1569=CARTESIAN_POINT('Ctrl Pts',(4.54620153214411,3.55531000048158,6.36805284344126));
#1570=CARTESIAN_POINT('Ctrl Pts',(4.54753008718585,3.10616520922433,6.59011124502879));
#1571=CARTESIAN_POINT('Ctrl Pts',(4.54753008718585,3.53917791111655,6.34011124502879));
#1572=CARTESIAN_POINT('Ctrl Pts',(4.54753008718585,3.40927410054889,6.41511124502879));
#1573=CARTESIAN_POINT('Ctrl Pts',(4.54438657408251,3.44744446813624,6.48122426103367));
#1574=CARTESIAN_POINT('Ctrl Pts',(4.53919063708047,3.4830837938463,6.54295338391097));
#1575=CARTESIAN_POINT('Ctrl Pts',(4.53192191340089,3.51618006280669,6.60027780329133));
#1576=CARTESIAN_POINT('Ctrl Pts',(4.52592808273052,3.54347143343988,6.64754784383621));
#1577=CARTESIAN_POINT('Ctrl Pts',(4.51852462872533,3.5690319315213,6.69181992518));
#1578=CARTESIAN_POINT('Ctrl Pts',(4.50967042116052,3.59286044370259,6.73309211894678));
#1579=CARTESIAN_POINT('Ctrl Pts',(4.50202194415894,3.61344408442556,6.76874403048371));
#1580=CARTESIAN_POINT('Ctrl Pts',(4.49329077098267,3.63273482226176,6.80215656853149));
#1581=CARTESIAN_POINT('Ctrl Pts',(4.48342800284832,3.65074848120764,6.83335714105598));
#1582=CARTESIAN_POINT('Ctrl Pts',(4.47440916647585,3.66722075757969,6.86188796064868));
#1583=CARTESIAN_POINT('Ctrl Pts',(4.46444396916171,3.68262497124478,6.88856884136725));
#1584=CARTESIAN_POINT('Ctrl Pts',(4.45347691259519,3.69699221498954,6.91345363749791));
#1585=CARTESIAN_POINT('Ctrl Pts',(4.44310881058648,3.7105748064375,6.93697937598422));
#1586=CARTESIAN_POINT('Ctrl Pts',(4.43184541156864,3.72323025475634,6.95889925546502));
#1587=CARTESIAN_POINT('Ctrl Pts',(4.41962245926711,3.73500677448135,6.97929678596508));
#1588=CARTESIAN_POINT('Ctrl Pts',(4.40652272014919,3.74762805715586,7.00115748881401));
#1589=CARTESIAN_POINT('Ctrl Pts',(4.39232042794324,3.75923972283566,7.02126948373194));
#1590=CARTESIAN_POINT('Ctrl Pts',(4.37691675116586,3.76993170457731,7.03978853934206));
#1591=CARTESIAN_POINT('Ctrl Pts',(4.35774024631418,3.78324247723931,7.06284347388065));
#1592=CARTESIAN_POINT('Ctrl Pts',(4.33669671496151,3.79513066432124,7.08343441791644));
#1593=CARTESIAN_POINT('Ctrl Pts',(4.31360083445702,3.80580311648342,7.10191964730269));
#1594=CARTESIAN_POINT('Ctrl Pts',(4.2968545791115,3.81354144925822,7.11532283283452));
#1595=CARTESIAN_POINT('Ctrl Pts',(4.27902924544126,3.82064151620952,7.1276205095313));
#1596=CARTESIAN_POINT('Ctrl Pts',(4.26008305840589,3.82717319509559,7.1389337092207));
#1597=CARTESIAN_POINT('Ctrl Pts',(4.24355962412179,3.83286963241236,7.14880022807548));
#1598=CARTESIAN_POINT('Ctrl Pts',(4.22618339044116,3.83813412348537,7.15791859408992));
#1599=CARTESIAN_POINT('Ctrl Pts',(4.2079545509128,3.84299865221621,7.16634420500661));
#1600=CARTESIAN_POINT('Ctrl Pts',(4.19031033351556,3.84770716930686,7.17449959583593));
#1601=CARTESIAN_POINT('Ctrl Pts',(4.17186716882583,3.85204110435445,7.18200619153506));
#1602=CARTESIAN_POINT('Ctrl Pts',(4.15265756262939,3.85601068722968,7.18888171075981));
#1603=CARTESIAN_POINT('Ctrl Pts',(4.13299472966857,3.86007392747529,7.19591944930856));
#1604=CARTESIAN_POINT('Ctrl Pts',(4.11252875248126,3.86375546381887,7.20229605730557));
#1605=CARTESIAN_POINT('Ctrl Pts',(4.09133114005911,3.86704481364631,7.20799337833055));
#1606=CARTESIAN_POINT('Ctrl Pts',(4.06813337101689,3.87064453875101,7.21422828510519));
#1607=CARTESIAN_POINT('Ctrl Pts',(4.04405961248323,3.87377424485392,7.21964909508817));
#1608=CARTESIAN_POINT('Ctrl Pts',(4.01924618928428,3.87639702182106,7.22419187805218));
#1609=CARTESIAN_POINT('Ctrl Pts',(3.99128331102022,3.87935269595187,7.22931125581736));
#1610=CARTESIAN_POINT('Ctrl Pts',(3.96238121054561,3.88166413619927,7.23331478776453));
#1611=CARTESIAN_POINT('Ctrl Pts',(3.93278367466014,3.88325697127282,7.23607365903999));
#1612=CARTESIAN_POINT('Ctrl Pts',(3.89577647978426,3.88524856808008,7.23952320589835));
#1613=CARTESIAN_POINT('Ctrl Pts',(3.85768269135889,3.88611472319914,7.2410234305718));
#1614=CARTESIAN_POINT('Ctrl Pts',(3.81904904241413,3.88569583075636,7.240297887578));
#1615=CARTESIAN_POINT('Ctrl Pts',(3.78721276583173,3.88535064007334,7.23969999977671));
#1616=CARTESIAN_POINT('Ctrl Pts',(3.7550123626913,3.88413158325278,7.23758853142618));
#1617=CARTESIAN_POINT('Ctrl Pts',(3.72276598715688,3.88196470825333,7.23383539383349));
#1618=CARTESIAN_POINT('Ctrl Pts',(3.69027230899155,3.87978121514163,7.23005347282605));
#1619=CARTESIAN_POINT('Ctrl Pts',(3.65773277014073,3.87663531761869,7.22460461848091));
#1620=CARTESIAN_POINT('Ctrl Pts',(3.62546418706218,3.87247851961356,7.21740483313922));
#1621=CARTESIAN_POINT('Ctrl Pts',(3.59222977323684,3.86819730451482,7.20998955107007));
#1622=CARTESIAN_POINT('Ctrl Pts',(3.55928357831948,3.86284406336179,7.20071746540786));
#1623=CARTESIAN_POINT('Ctrl Pts',(3.52695045238192,3.85639144909043,7.18954120964822));
#1624=CARTESIAN_POINT('Ctrl Pts',(3.49441432558624,3.84989832261383,7.17829478469078));
#1625=CARTESIAN_POINT('Ctrl Pts',(3.46249980029787,3.84229236454637,7.16512087887769));
#1626=CARTESIAN_POINT('Ctrl Pts',(3.43150463788353,3.83356573181897,7.15000590761485));
#1627=CARTESIAN_POINT('Ctrl Pts',(3.40017261061411,3.8247442553921,7.13472666224574));
#1628=CARTESIAN_POINT('Ctrl Pts',(3.36978096207959,3.81477798629258,7.11746457780346));
#1629=CARTESIAN_POINT('Ctrl Pts',(3.34059017785654,3.80367350511817,7.0982310522177));
#1630=CARTESIAN_POINT('Ctrl Pts',(3.31333985607643,3.79330719625537,7.08027607858037));
#1631=CARTESIAN_POINT('Ctrl Pts',(3.28713621353571,3.78194935531409,7.0606037210058));
#1632=CARTESIAN_POINT('Ctrl Pts',(3.26214382006994,3.76961237067307,7.03923543679534));
#1633=CARTESIAN_POINT('Ctrl Pts',(3.23635285924697,3.75688118956446,7.01718438427488));
#1634=CARTESIAN_POINT('Ctrl Pts',(3.21185193040024,3.74310748194624,6.99332762287151));
#1635=CARTESIAN_POINT('Ctrl Pts',(3.18876369432538,3.72830829636623,6.96769468153629));
#1636=CARTESIAN_POINT('Ctrl Pts',(3.1642432036401,3.71259105876576,6.94047162745765));
#1637=CARTESIAN_POINT('Ctrl Pts',(3.14131565540907,3.69571732880683,6.91124546985558));
#1638=CARTESIAN_POINT('Ctrl Pts',(3.12006734119635,3.67770873535515,6.88005367102442));
#1639=CARTESIAN_POINT('Ctrl Pts',(3.09584444505342,3.65717909312126,6.84449528761412));
#1640=CARTESIAN_POINT('Ctrl Pts',(3.07380357645726,3.63517490825411,6.80638292144507));
#1641=CARTESIAN_POINT('Ctrl Pts',(3.05400092425386,3.6117259580343,6.76576814828021));
#1642=CARTESIAN_POINT('Ctrl Pts',(3.03192578747646,3.58558608656296,6.72049256278853));
#1643=CARTESIAN_POINT('Ctrl Pts',(3.01263029499599,3.55765138408582,6.67210823880381));
#1644=CARTESIAN_POINT('Ctrl Pts',(2.99612500206737,3.52795328348489,6.6206696196747));
#1645=CARTESIAN_POINT('Ctrl Pts',(2.97843379934365,3.49612136626216,6.56553512174261));
#1646=CARTESIAN_POINT('Ctrl Pts',(2.96394437024748,3.46226424372741,6.50689286531433));
#1647=CARTESIAN_POINT('Ctrl Pts',(2.9526418251659,3.42639972239621,6.44477369217956));
#1648=CARTESIAN_POINT('Ctrl Pts',(2.95085856719266,3.4207412009607,6.43497284555753));
#1649=CARTESIAN_POINT('Ctrl Pts',(2.94915465901606,3.41503265734735,6.42508535798199));
#1650=CARTESIAN_POINT('Ctrl Pts',(2.94753008718585,3.40927410054889,6.41511124502879));
#1651=CARTESIAN_POINT('Ctrl Pts',(2.94753008718585,3.10616520922433,6.59011124502879));
#1652=CARTESIAN_POINT('Ctrl Pts',(2.95205227304835,3.12219482617217,6.6178753560083));
#1653=CARTESIAN_POINT('Ctrl Pts',(2.96212123911081,3.15360816012235,6.67228484644515));
#1654=CARTESIAN_POINT('Ctrl Pts',(2.980298468155,3.19879046267199,6.75054289006407));
#1655=CARTESIAN_POINT('Ctrl Pts',(3.01069839875676,3.25514801368708,6.84815703181236));
#1656=CARTESIAN_POINT('Ctrl Pts',(3.05900913190072,3.31905106816674,6.95884036892998));
#1657=CARTESIAN_POINT('Ctrl Pts',(3.11758129271036,3.37630912757515,7.05801423696814));
#1658=CARTESIAN_POINT('Ctrl Pts',(3.18618822283808,3.42679943076382,7.14546600738048));
#1659=CARTESIAN_POINT('Ctrl Pts',(3.26433223984866,3.4703910442668,7.22096889675155));
#1660=CARTESIAN_POINT('Ctrl Pts',(3.35114402799076,3.50696024961695,7.28430861841042));
#1661=CARTESIAN_POINT('Ctrl Pts',(3.4452802540986,3.53640870307946,7.33531483601181));
#1662=CARTESIAN_POINT('Ctrl Pts',(3.5450186484935,3.55870022176517,7.37392487895333));
#1663=CARTESIAN_POINT('Ctrl Pts',(3.64834312615798,3.57390087166672,7.40025317689088));
#1664=CARTESIAN_POINT('Ctrl Pts',(3.75302773014024,3.58222023926141,7.41466274425173));
#1665=CARTESIAN_POINT('Ctrl Pts',(3.85671392383835,3.58406081063762,7.41785070739028));
#1666=CARTESIAN_POINT('Ctrl Pts',(3.9569950561485,3.58005834271919,7.4109182295999));
#1667=CARTESIAN_POINT('Ctrl Pts',(4.05161122697757,3.57090902611886,7.39507114839359));
#1668=CARTESIAN_POINT('Ctrl Pts',(4.13865608087375,3.55719758162048,7.37132222987724));
#1669=CARTESIAN_POINT('Ctrl Pts',(4.21675577977615,3.53924807236092,7.34023276786875));
#1670=CARTESIAN_POINT('Ctrl Pts',(4.28533802093077,3.51691285733295,7.30154704064233));
#1671=CARTESIAN_POINT('Ctrl Pts',(4.344581564097,3.48960435486876,7.25424732689573));
#1672=CARTESIAN_POINT('Ctrl Pts',(4.39508501645671,3.45654424828593,7.19698554259064));
#1673=CARTESIAN_POINT('Ctrl Pts',(4.43764130870949,3.41693328215583,7.1283773367164));
#1674=CARTESIAN_POINT('Ctrl Pts',(4.47293485564646,3.37019599528478,7.04742598124782));
#1675=CARTESIAN_POINT('Ctrl Pts',(4.5014498668353,3.31602422979604,6.95359773108563));
#1676=CARTESIAN_POINT('Ctrl Pts',(4.52352355641881,3.25428005509219,6.84665368342715));
#1677=CARTESIAN_POINT('Ctrl Pts',(4.53619228155016,3.19881102572481,6.75057850631632));
#1678=CARTESIAN_POINT('Ctrl Pts',(4.54293233832748,3.15380752495646,6.67263015646707));
#1679=CARTESIAN_POINT('Ctrl Pts',(4.54620153214411,3.12229729858936,6.61805284344126));
#1680=CARTESIAN_POINT('Ctrl Pts',(4.54753008718585,3.10616520922433,6.59011124502879));
#1681=CARTESIAN_POINT('Origin',(0.,4.10512891211615,8.32036713335455));
#1682=CARTESIAN_POINT('',(4.55246991281415,1.70823780344071,4.16882995291858));
#1683=CARTESIAN_POINT('',(1.875,1.70823780344071,4.16882995291858));
#1684=CARTESIAN_POINT('',(4.55246991281415,1.70616520922434,4.16524011443236));
#1685=CARTESIAN_POINT('',(4.55246991281415,2.82163526306226,6.09729092200124));
#1686=CARTESIAN_POINT('',(7.5,1.70616520922434,4.16524011443236));
#1687=CARTESIAN_POINT('',(0.,1.70616520922434,4.16524011443236));
#1688=CARTESIAN_POINT('',(7.5,4.10512891211615,8.32036713335455));
#1689=CARTESIAN_POINT('',(7.5,4.10512891211615,8.32036713335455));
#1690=CARTESIAN_POINT('',(0.,4.10512891211615,8.32036713335455));
#1691=CARTESIAN_POINT('',(0.,4.10512891211615,8.32036713335455));
#1692=CARTESIAN_POINT('',(0.,1.70616520922434,4.16524011443236));
#1693=CARTESIAN_POINT('',(0.,4.10512891211615,8.32036713335455));
#1694=CARTESIAN_POINT('',(2.94753008718585,1.70616520922434,4.16524011443236));
#1695=CARTESIAN_POINT('',(0.,1.70616520922434,4.16524011443236));
#1696=CARTESIAN_POINT('',(2.94753008718585,2.60512891211615,5.72229092200124));
#1697=CARTESIAN_POINT('Origin',(3.75,1.70823780344071,4.31524011443236));
#1698=CARTESIAN_POINT('',(2.94753008718585,1.70823780344071,3.81524011443236));
#1699=CARTESIAN_POINT('',(2.94753008718585,1.70823780344071,4.81524011443236));
#1700=CARTESIAN_POINT('',(4.55246991281415,1.70823780344071,3.81524011443236));
#1701=CARTESIAN_POINT('',(1.875,1.70823780344071,3.81524011443236));
#1702=CARTESIAN_POINT('',(4.55246991281415,1.70823780344071,3.81524011443236));
#1703=CARTESIAN_POINT('Origin',(4.55246991281415,-0.0917621965592943,4.81524011443236));
#1704=CARTESIAN_POINT('',(4.55246991281415,0.807201506332521,4.16524011443236));
#1705=CARTESIAN_POINT('',(4.55246991281415,-0.0917621965592943,3.81524011443236));
#1706=CARTESIAN_POINT('',(4.55246991281415,-0.0917621965592945,3.81524011443236));
#1707=CARTESIAN_POINT('',(4.55246991281415,-0.0917621965592947,4.81524011443236));
#1708=CARTESIAN_POINT('Origin',(2.94753008718585,-0.0917621965592947,3.81524011443236));
#1709=CARTESIAN_POINT('',(2.94753008718585,-0.0917621965592947,3.81524011443236));
#1710=CARTESIAN_POINT('',(2.94753008718585,0.258237803440705,4.16524011443236));
#1711=CARTESIAN_POINT('',(2.94753008718585,0.80720150633252,4.16524011443236));
#1712=CARTESIAN_POINT('',(2.94753008718585,0.258237803440705,3.99024011443236));
#1713=CARTESIAN_POINT('Origin',(0.,1.70616520922434,4.16524011443236));
#1714=CARTESIAN_POINT('',(7.5,1.70616520922434,4.16524011443236));
#1715=CARTESIAN_POINT('Origin',(0.,-0.0917621965592947,4.81524011443236));
#1716=CARTESIAN_POINT('',(7.5,-0.0917621965592947,3.81524011443236));
#1717=CARTESIAN_POINT('',(0.,-0.0917621965592947,3.81524011443236));
#1718=CARTESIAN_POINT('',(7.5,-0.0917621965592947,3.81524011443236));
#1719=CARTESIAN_POINT('Origin',(2.94753008718585,7.65738154040907,5.04493926526354));
#1720=CARTESIAN_POINT('',(2.94753008718585,8.3961780108575,1.99178110507663));
#1721=CARTESIAN_POINT('',(2.94753008718585,7.328489123134,4.92523221509956));
#1722=CARTESIAN_POINT('',(2.94753008718585,6.77122247557253,6.45630974588989));
#1723=CARTESIAN_POINT('',(2.94753008718585,8.72507042813257,2.11148815524061));
#1724=CARTESIAN_POINT('',(2.94753008718585,8.72507042813257,2.11148815524061));
#1725=CARTESIAN_POINT('',(2.94753008718585,7.65738154040907,5.04493926526354));
#1726=CARTESIAN_POINT('',(2.94753008718585,8.63918019452402,2.34746963263177));
#1727=CARTESIAN_POINT('',(2.94753008718585,7.65738154040907,5.04493926526354));
#1728=CARTESIAN_POINT('Origin',(3.75,7.65738154040907,5.04493926526354));
#1729=CARTESIAN_POINT('',(4.55246991281415,7.328489123134,4.92523221509956));
#1730=CARTESIAN_POINT('Origin',(3.75,7.328489123134,4.92523221509956));
#1731=CARTESIAN_POINT('',(4.55246991281415,7.65738154040907,5.04493926526354));
#1732=CARTESIAN_POINT('Origin',(3.75,7.65738154040907,5.04493926526354));
#1733=CARTESIAN_POINT('',(4.55246991281415,7.65738154040907,5.04493926526354));
#1734=CARTESIAN_POINT('Origin',(4.55246991281415,8.72507042813257,2.11148815524061));
#1735=CARTESIAN_POINT('',(4.55246991281415,8.3961780108575,1.99178110507663));
#1736=CARTESIAN_POINT('',(4.55246991281415,7.30506691943428,4.98958419087843));
#1737=CARTESIAN_POINT('',(4.55246991281415,8.72507042813257,2.11148815524061));
#1738=CARTESIAN_POINT('',(4.55246991281415,9.17302463838577,0.880744077620306));
#1739=CARTESIAN_POINT('',(4.55246991281415,8.72507042813257,2.11148815524061));
#1740=CARTESIAN_POINT('Origin',(3.75,8.72507042813257,2.11148815524061));
#1741=CARTESIAN_POINT('Origin',(3.75,8.3961780108575,1.99178110507663));
#1742=CARTESIAN_POINT('Origin',(3.75,8.72507042813257,2.11148815524061));
#1743=CARTESIAN_POINT('Origin',(0.,6.21395582801105,7.98738727668022));
#1744=CARTESIAN_POINT('',(0.,9.12112704627924,0.));
#1745=CARTESIAN_POINT('',(0.,6.21395582801105,7.98738727668022));
#1746=CARTESIAN_POINT('',(0.,9.12112704627924,0.));
#1747=CARTESIAN_POINT('',(7.5,9.12112704627924,0.));
#1748=CARTESIAN_POINT('',(0.,9.12112704627924,0.));
#1749=CARTESIAN_POINT('',(7.5,6.21395582801105,7.98738727668022));
#1750=CARTESIAN_POINT('',(7.5,9.12112704627924,0.));
#1751=CARTESIAN_POINT('',(0.,6.21395582801105,7.98738727668022));
#1752=CARTESIAN_POINT('Origin',(0.,5.27426320722514,7.64536713335455));
#1753=CARTESIAN_POINT('',(0.,4.4082378034407,8.14536713335455));
#1754=CARTESIAN_POINT('Origin',(0.,5.27426320722514,7.64536713335455));
#1755=CARTESIAN_POINT('',(7.5,4.4082378034407,8.14536713335455));
#1756=CARTESIAN_POINT('Origin',(7.5,5.27426320722514,7.64536713335455));
#1757=CARTESIAN_POINT('',(0.,4.4082378034407,8.14536713335455));
#1758=CARTESIAN_POINT('Origin',(0.,1.90823780344071,3.81524011443236));
#1759=CARTESIAN_POINT('',(0.,1.90823780344071,3.81524011443236));
#1760=CARTESIAN_POINT('',(0.,4.4082378034407,8.14536713335455));
#1761=CARTESIAN_POINT('',(7.5,1.90823780344071,3.81524011443236));
#1762=CARTESIAN_POINT('',(7.5,4.4082378034407,8.14536713335455));
#1763=CARTESIAN_POINT('',(0.,1.90823780344071,3.81524011443236));
#1764=CARTESIAN_POINT('Origin',(0.,-0.0917621965592947,3.81524011443236));
#1765=CARTESIAN_POINT('',(0.,1.90823780344071,3.81524011443236));
#1766=CARTESIAN_POINT('',(7.5,1.90823780344071,3.81524011443236));
#1767=CARTESIAN_POINT('Origin',(0.,0.258237803440705,4.16524011443236));
#1768=CARTESIAN_POINT('',(0.,0.258237803440705,4.16524011443236));
#1769=CARTESIAN_POINT('',(0.,0.258237803440705,4.16524011443236));
#1770=CARTESIAN_POINT('',(0.,0.258237803440705,4.16524011443236));
#1771=CARTESIAN_POINT('Origin',(0.,1.70616520922434,4.16524011443236));
#1772=CARTESIAN_POINT('',(0.,1.70616520922434,4.16524011443236));
#1773=CARTESIAN_POINT('Origin',(0.,5.27426320722514,7.64536713335455));
#1774=CARTESIAN_POINT('',(0.,6.54284824528612,8.10709432684421));
#1775=CARTESIAN_POINT('Origin',(0.,5.27426320722514,7.64536713335455));
#1776=CARTESIAN_POINT('',(7.5,6.54284824528612,8.10709432684421));
#1777=CARTESIAN_POINT('Origin',(7.5,5.27426320722514,7.64536713335455));
#1778=CARTESIAN_POINT('',(0.,6.54284824528612,8.10709432684421));
#1779=CARTESIAN_POINT('Origin',(0.,9.62097884863898,-0.35));
#1780=CARTESIAN_POINT('',(0.,9.62097884863898,-0.35));
#1781=CARTESIAN_POINT('',(7.5,9.62097884863898,-0.35));
#1782=CARTESIAN_POINT('Origin',(0.,0.,0.));
#1783=CARTESIAN_POINT('',(0.,0.,0.));
#1784=CARTESIAN_POINT('',(0.,0.,0.));
#1785=CARTESIAN_POINT('',(0.,0.,0.));
#1786=CARTESIAN_POINT('Origin',(0.,9.12112704627924,0.));
#1787=CARTESIAN_POINT('',(0.,0.,0.));
#1788=CARTESIAN_POINT('',(7.5,0.,0.));
#1789=CARTESIAN_POINT('Origin',(7.5,4.76460832603984,4.32268356667728));
#1790=CARTESIAN_POINT('Origin',(0.,4.76460832603984,4.32268356667728));
#1791=UNCERTAINTY_MEASURE_WITH_UNIT(LENGTH_MEASURE(0.001),#1795,
'DISTANCE_ACCURACY_VALUE',
'Maximum model space distance between geometric entities at asserted c
onnectivities');
#1792=UNCERTAINTY_MEASURE_WITH_UNIT(LENGTH_MEASURE(0.001),#1795,
'DISTANCE_ACCURACY_VALUE',
'Maximum model space distance between geometric entities at asserted c
onnectivities');
#1793=(
GEOMETRIC_REPRESENTATION_CONTEXT(3)
GLOBAL_UNCERTAINTY_ASSIGNED_CONTEXT((#1791))
GLOBAL_UNIT_ASSIGNED_CONTEXT((#1795,#1797,#1798))
REPRESENTATION_CONTEXT('','3D')
);
#1794=(
GEOMETRIC_REPRESENTATION_CONTEXT(3)
GLOBAL_UNCERTAINTY_ASSIGNED_CONTEXT((#1792))
GLOBAL_UNIT_ASSIGNED_CONTEXT((#1795,#1797,#1798))
REPRESENTATION_CONTEXT('','3D')
);
#1795=(
LENGTH_UNIT()
NAMED_UNIT(*)
SI_UNIT(.CENTI.,.METRE.)
);
#1796=(
LENGTH_UNIT()
NAMED_UNIT(*)
SI_UNIT($,.METRE.)
);
#1797=(
NAMED_UNIT(*)
PLANE_ANGLE_UNIT()
SI_UNIT($,.RADIAN.)
);
#1798=(
NAMED_UNIT(*)
SI_UNIT($,.STERADIAN.)
SOLID_ANGLE_UNIT()
);
#1799=SHAPE_DEFINITION_REPRESENTATION(#1800,#1801);
#1800=PRODUCT_DEFINITION_SHAPE('',$,#1803);
#1801=SHAPE_REPRESENTATION('',(#999),#1793);
#1802=PRODUCT_DEFINITION_CONTEXT('part definition',#1807,'design');
#1803=PRODUCT_DEFINITION('2026-07-16-09-25-46-286',
'phone holder prototype 2',#1804,#1802);
#1804=PRODUCT_DEFINITION_FORMATION('',$,#1809);
#1805=PRODUCT_RELATED_PRODUCT_CATEGORY('phone holder prototype 2',
'phone holder prototype 2',(#1809));
#1806=APPLICATION_PROTOCOL_DEFINITION('international standard',
'automotive_design',2009,#1807);
#1807=APPLICATION_CONTEXT(
'Core Data for Automotive Mechanical Design Process');
#1808=PRODUCT_CONTEXT('part definition',#1807,'mechanical');
#1809=PRODUCT('2026-07-16-09-25-46-286','phone holder prototype 2',$,(#1808));
#1810=PRESENTATION_STYLE_ASSIGNMENT((#1812));
#1811=PRESENTATION_STYLE_ASSIGNMENT((#1813));
#1812=SURFACE_STYLE_USAGE(.BOTH.,#1814);
#1813=SURFACE_STYLE_USAGE(.BOTH.,#1815);
#1814=SURFACE_SIDE_STYLE('',(#1816));
#1815=SURFACE_SIDE_STYLE('',(#1817));
#1816=SURFACE_STYLE_FILL_AREA(#1818);
#1817=SURFACE_STYLE_FILL_AREA(#1819);
#1818=FILL_AREA_STYLE('Steel - Satin',(#1820));
#1819=FILL_AREA_STYLE('Aluminum - Anodized Glossy (Grey)',(#1821));
#1820=FILL_AREA_STYLE_COLOUR('Steel - Satin',#1822);
#1821=FILL_AREA_STYLE_COLOUR('Aluminum - Anodized Glossy (Grey)',#1823);
#1822=COLOUR_RGB('Steel - Satin',0.627450980392157,0.627450980392157,0.627450980392157);
#1823=COLOUR_RGB('Aluminum - Anodized Glossy (Grey)',0.537254901960784,
0.537254901960784,0.537254901960784);
ENDSEC;
END-ISO-10303-21;
